<svg width="49" height="49" viewBox="0 0 49 49" fill="none" xmlns="http://www.w3.org/2000/svg">
<path opacity="0.1" fill-rule="evenodd" clip-rule="evenodd" d="M1 24.5C1 11.5213 11.5213 1 24.5 1V1C37.4787 1 48 11.5213 48 24.5V24.5C48 37.4787 37.4787 48 24.5 48V48C11.5213 48 1 37.4787 1 24.5V24.5Z" stroke="white" stroke-width="2"/>
<path opacity="0.3" fill-rule="evenodd" clip-rule="evenodd" d="M5 24.5C5 13.7304 13.7304 5 24.5 5V5V5C35.2696 5 44 13.7304 44 24.5V24.5C44 35.2696 35.2696 44 24.5 44V44C13.7304 44 5 35.2696 5 24.5V24.5Z" stroke="white" stroke-width="2"/>
<path opacity="0.5" fill-rule="evenodd" clip-rule="evenodd" d="M9 24.5C9 15.9396 15.9396 9 24.5 9V9V9C33.0604 9 40 15.9396 40 24.5V24.5C40 33.0604 33.0604 40 24.5 40V40C15.9396 40 9 33.0604 9 24.5V24.5Z" stroke="white" stroke-width="2"/>
<circle cx="24.5" cy="24.5" r="12.5" fill="white"/>
<path d="M28.2677 24.7503C28.4551 24.7503 28.634 24.7865 28.8044 24.8589C28.979 24.927 29.1324 25.0271 29.2644 25.1592L30.6701 26.5648C30.8021 26.6969 30.9022 26.8502 30.9704 27.0249C31.0428 27.1953 31.079 27.3742 31.079 27.5616C31.079 27.749 31.0428 27.93 30.9704 28.1047C30.9022 28.2751 30.8021 28.4263 30.6701 28.5583L30.5806 28.6478C30.3506 28.8778 30.1397 29.0822 29.9481 29.2611C29.7564 29.44 29.5562 29.5913 29.3475 29.7148C29.1387 29.8341 28.9066 29.9256 28.651 29.9895C28.3955 30.0534 28.0909 30.0854 27.7374 30.0854C27.2049 30.0854 26.6576 30.0023 26.0953 29.8362C25.533 29.6701 24.9729 29.44 24.4149 29.1461C23.8612 28.8522 23.3159 28.5029 22.7792 28.0983C22.2468 27.6936 21.742 27.2528 21.265 26.7757C20.7921 26.2944 20.3555 25.7875 19.9551 25.255C19.5547 24.7183 19.2097 24.1731 18.9201 23.6194C18.6304 23.0614 18.4047 22.5055 18.2428 21.9517C18.0809 21.398 18 20.8613 18 20.3416C18 19.9881 18.0298 19.6857 18.0895 19.4343C18.1533 19.183 18.2449 18.953 18.3642 18.7443C18.4877 18.5356 18.6368 18.3375 18.8114 18.1501C18.9903 17.9584 19.1948 17.7476 19.4248 17.5175L19.5271 17.4153C19.6591 17.2833 19.8103 17.181 19.9807 17.1086C20.1511 17.0362 20.3321 17 20.5238 17C20.7112 17 20.8901 17.0362 21.0605 17.1086C21.2351 17.181 21.3885 17.2833 21.5205 17.4153L22.9262 18.821C23.0582 18.953 23.1583 19.1064 23.2265 19.281C23.2989 19.4514 23.3351 19.6303 23.3351 19.8177C23.3351 20.0051 23.3032 20.1734 23.2393 20.3225C23.1754 20.4673 23.0966 20.5993 23.0029 20.7186C22.9091 20.8379 22.8048 20.9465 22.6898 21.0445C22.579 21.1424 22.4768 21.2383 22.3831 21.332C22.2894 21.4257 22.2106 21.5215 22.1467 21.6195C22.0828 21.7132 22.0508 21.8154 22.0508 21.9262C22.0508 22.088 22.1083 22.2265 22.2234 22.3415L25.7439 25.862C25.8589 25.977 25.9973 26.0345 26.1592 26.0345C26.2699 26.0345 26.3722 26.0026 26.4659 25.9387C26.5638 25.8748 26.6597 25.796 26.7534 25.7023C26.8471 25.6086 26.9429 25.5063 27.0409 25.3956C27.1389 25.2806 27.2475 25.1762 27.3668 25.0825C27.486 24.9888 27.6181 24.91 27.7629 24.8461C27.912 24.7822 28.0802 24.7503 28.2677 24.7503ZM27.7374 29.2675C28.044 29.2675 28.2996 29.2398 28.5041 29.1845C28.7128 29.1248 28.9002 29.0418 29.0663 28.9353C29.2325 28.8245 29.3943 28.6882 29.5519 28.5264C29.7095 28.3645 29.8906 28.1813 30.095 27.9769C30.21 27.8619 30.2675 27.7234 30.2675 27.5616C30.2675 27.4849 30.2356 27.3955 30.1717 27.2932C30.1121 27.1867 30.0333 27.076 29.9353 26.961C29.8373 26.846 29.7266 26.7288 29.603 26.6096C29.4838 26.486 29.3645 26.371 29.2452 26.2645C29.1302 26.1538 29.0216 26.0537 28.9194 25.9642C28.8214 25.8705 28.7447 25.796 28.6894 25.7406C28.5744 25.6256 28.4338 25.5681 28.2677 25.5681C28.1569 25.5681 28.0547 25.6001 27.961 25.6639C27.8673 25.7278 27.7736 25.8066 27.6798 25.9003C27.5861 25.9941 27.4882 26.0984 27.3859 26.2134C27.288 26.3242 27.1794 26.4264 27.0601 26.5201C26.9408 26.6138 26.8066 26.6926 26.6576 26.7565C26.5127 26.8204 26.3466 26.8524 26.1592 26.8524C25.9718 26.8524 25.7907 26.8183 25.6161 26.7501C25.4457 26.6777 25.2945 26.5755 25.1624 26.4434L21.6419 22.9229C21.5099 22.7909 21.4076 22.6397 21.3352 22.4693C21.2671 22.2946 21.233 22.1136 21.233 21.9262C21.233 21.7388 21.265 21.5726 21.3288 21.4278C21.3927 21.2787 21.4715 21.1446 21.5653 21.0253C21.659 20.906 21.7612 20.7974 21.8719 20.6994C21.9869 20.5972 22.0913 20.4992 22.185 20.4055C22.2787 20.3118 22.3575 20.2181 22.4214 20.1244C22.4853 20.0307 22.5173 19.9284 22.5173 19.8177C22.5173 19.6516 22.4598 19.511 22.3448 19.396C22.2894 19.3406 22.2148 19.264 22.1211 19.166C22.0317 19.0638 21.9316 18.9551 21.8208 18.8401C21.7143 18.7209 21.5993 18.6016 21.4758 18.4823C21.3565 18.3588 21.2394 18.2481 21.1244 18.1501C21.0094 18.0521 20.8986 17.9733 20.7921 17.9137C20.6899 17.8498 20.6005 17.8178 20.5238 17.8178C20.3619 17.8178 20.2235 17.8753 20.1085 17.9903C19.904 18.1948 19.7209 18.3758 19.559 18.5334C19.4014 18.691 19.2651 18.8529 19.1501 19.019C19.0393 19.1852 18.9541 19.3726 18.8945 19.5813C18.8391 19.7858 18.8114 20.0392 18.8114 20.3416C18.8114 20.8187 18.8881 21.3107 19.0415 21.8176C19.1991 22.3244 19.4142 22.8313 19.6868 23.3382C19.9637 23.8451 20.2895 24.3456 20.6644 24.8397C21.0392 25.3296 21.4481 25.7939 21.8911 26.2326C22.3341 26.6713 22.8005 27.076 23.2904 27.4466C23.7845 27.8172 24.2829 28.1387 24.7855 28.4114C25.2924 28.6797 25.795 28.8906 26.2934 29.0439C26.796 29.193 27.2773 29.2675 27.7374 29.2675Z" fill="#315FA2"/>
</svg>
