<svg width="49" height="49" viewBox="0 0 49 49" fill="none" xmlns="http://www.w3.org/2000/svg">
<path opacity="0.1" fill-rule="evenodd" clip-rule="evenodd" d="M1 24.5C1 11.5213 11.5213 1 24.5 1V1C37.4787 1 48 11.5213 48 24.5V24.5C48 37.4787 37.4787 48 24.5 48V48C11.5213 48 1 37.4787 1 24.5V24.5Z" stroke="white" stroke-width="2"/>
<path opacity="0.3" fill-rule="evenodd" clip-rule="evenodd" d="M5 24.5C5 13.7304 13.7304 5 24.5 5V5V5C35.2696 5 44 13.7304 44 24.5V24.5C44 35.2696 35.2696 44 24.5 44V44C13.7304 44 5 35.2696 5 24.5V24.5Z" stroke="white" stroke-width="2"/>
<path opacity="0.5" fill-rule="evenodd" clip-rule="evenodd" d="M9 24.5C9 15.9396 15.9396 9 24.5 9V9V9C33.0604 9 40 15.9396 40 24.5V24.5C40 33.0604 33.0604 40 24.5 40V40C15.9396 40 9 33.0604 9 24.5V24.5Z" stroke="white" stroke-width="2"/>
<circle cx="24.5" cy="24.5" r="12.5" fill="white"/>
<path d="M30.251 19.3965C30.361 19.5869 30.4604 19.7689 30.5493 19.9424C30.6424 20.1159 30.7228 20.2915 30.7905 20.4692C30.8582 20.647 30.909 20.8332 30.9429 21.0278C30.981 21.2183 31 21.4277 31 21.6562C31 21.9906 30.9556 22.3143 30.8667 22.6274C30.7821 22.9364 30.6593 23.2262 30.4985 23.4971C30.342 23.7679 30.1515 24.0155 29.9272 24.2397C29.703 24.464 29.4554 24.6566 29.1846 24.8174C28.9137 24.974 28.6217 25.0967 28.3086 25.1855C27.9997 25.2702 27.6781 25.3125 27.3438 25.3125C27.2464 25.3125 27.147 25.3083 27.0454 25.2998C26.9481 25.2913 26.8507 25.2786 26.7534 25.2617L21.6372 30.3779C21.4341 30.5811 21.2013 30.7355 20.939 30.8413C20.6808 30.9471 20.41 31 20.1265 31C19.8345 31 19.5594 30.945 19.3013 30.835C19.0431 30.7207 18.8167 30.5684 18.6221 30.3779C18.4316 30.1833 18.2793 29.9569 18.165 29.6987C18.055 29.4406 18 29.1655 18 28.8735C18 28.59 18.0529 28.3192 18.1587 28.061C18.2645 27.7987 18.4189 27.5659 18.6221 27.3628L23.7383 22.2466C23.7214 22.1493 23.7087 22.0519 23.7002 21.9546C23.6917 21.853 23.6875 21.7536 23.6875 21.6562C23.6875 21.3219 23.7298 21.0003 23.8145 20.6914C23.9033 20.3783 24.026 20.0863 24.1826 19.8154C24.3434 19.5446 24.536 19.297 24.7603 19.0728C24.9845 18.8485 25.2321 18.658 25.5029 18.5015C25.7738 18.3407 26.0636 18.2179 26.3726 18.1333C26.6857 18.0444 27.0094 18 27.3438 18C27.5723 18 27.7817 18.019 27.9722 18.0571C28.1668 18.091 28.353 18.1418 28.5308 18.2095C28.7085 18.2772 28.8841 18.3576 29.0576 18.4507C29.2311 18.5396 29.4131 18.639 29.6035 18.749L27.1025 21.25L27.75 21.8975L30.251 19.3965ZM27.3438 24.5C27.7373 24.5 28.1055 24.4259 28.4482 24.2778C28.7952 24.1255 29.0957 23.9224 29.3496 23.6685C29.6077 23.4103 29.8109 23.1099 29.959 22.7671C30.1113 22.4201 30.1875 22.0498 30.1875 21.6562C30.1875 21.3473 30.1367 21.049 30.0352 20.7612L27.75 23.04L25.96 21.25L28.2388 18.9648C27.951 18.8633 27.6527 18.8125 27.3438 18.8125C26.9502 18.8125 26.5799 18.8887 26.2329 19.041C25.8901 19.1891 25.5897 19.3923 25.3315 19.6504C25.0776 19.9043 24.8745 20.2048 24.7222 20.5518C24.5741 20.8945 24.5 21.2627 24.5 21.6562C24.5 21.8044 24.5127 21.9482 24.5381 22.0879C24.5635 22.2275 24.5931 22.3672 24.627 22.5068L19.1997 27.9404C19.077 28.0632 18.9818 28.2049 18.9141 28.3657C18.8464 28.5265 18.8125 28.6958 18.8125 28.8735C18.8125 29.0513 18.8464 29.2205 18.9141 29.3813C18.986 29.5422 19.0812 29.6818 19.1997 29.8003C19.3182 29.9188 19.4578 30.014 19.6187 30.0859C19.7795 30.1536 19.9487 30.1875 20.1265 30.1875C20.3042 30.1875 20.4735 30.1536 20.6343 30.0859C20.7951 30.0182 20.9368 29.923 21.0596 29.8003L26.4932 24.373C26.6328 24.4069 26.7725 24.4365 26.9121 24.4619C27.0518 24.4873 27.1956 24.5 27.3438 24.5Z" fill="#315FA2"/>
</svg>
