<svg width="49" height="49" viewBox="0 0 49 49" fill="none" xmlns="http://www.w3.org/2000/svg">
<path opacity="0.1" fill-rule="evenodd" clip-rule="evenodd" d="M1 24.5C1 11.5213 11.5213 1 24.5 1V1C37.4787 1 48 11.5213 48 24.5V24.5C48 37.4787 37.4787 48 24.5 48V48C11.5213 48 1 37.4787 1 24.5V24.5Z" stroke="white" stroke-width="2"/>
<path opacity="0.3" fill-rule="evenodd" clip-rule="evenodd" d="M5 24.5C5 13.7304 13.7304 5 24.5 5V5V5C35.2696 5 44 13.7304 44 24.5V24.5C44 35.2696 35.2696 44 24.5 44V44C13.7304 44 5 35.2696 5 24.5V24.5Z" stroke="white" stroke-width="2"/>
<path opacity="0.5" fill-rule="evenodd" clip-rule="evenodd" d="M9 24.5C9 15.9396 15.9396 9 24.5 9V9V9C33.0604 9 40 15.9396 40 24.5V24.5C40 33.0604 33.0604 40 24.5 40V40C15.9396 40 9 33.0604 9 24.5V24.5Z" stroke="white" stroke-width="2"/>
<circle cx="24.5" cy="24.5" r="12.5" fill="white"/>
<path d="M30 27.4746H27.75V28.9746H21.75L19.5 31.2246V28.9746H18V22.2246H19.5V19.9746H30V27.4746ZM27 22.9746H18.75V28.2246H20.25V29.4141C20.4492 29.2148 20.6445 29.0156 20.8359 28.8164C21.0312 28.6172 21.2324 28.4199 21.4395 28.2246H27V22.9746ZM29.25 20.7246H20.25V22.2246H27.75V26.7246H29.25V20.7246Z" fill="#315FA2"/>
</svg>
