<svg width="2048px" height="2048px" viewBox="0 0 2048 2048" xmlns="http://www.w3.org/2000/svg" xmlns:xlink="http://www.w3.org/1999/xlink"><path transform="translate(0,2048) scale(1,-1)" d= "M1664 512L1792 512L1792 384L1280 384Q1280 331 1260 284.5Q1240 238 1205 203Q1170 168 1123.5 148Q1077 128 1024 128Q971 128 924.5 148Q878 168 843 203Q808 238 788 284.5Q768 331 768 384L256 384L256 512L384 512L384 1280Q384 1368 407 1450Q430 1532 471.5 1603Q513 1674 571.5 1732.5Q630 1791 701 1832.5Q772 1874 854 1897Q936 1920 1024 1920Q1112 1920 1194 1897Q1276 1874 1347 1832.5Q1418 1791 1476.5 1732.5Q1535 1674 1576.5 1603Q1618 1532 1641 1450Q1664 1368 1664 1280L1664 512ZM512 512L1536 512L1536 1280Q1536 1386 1495.5 1479Q1455 1572 1385.5 1641.5Q1316 1711 1223 1751.5Q1130 1792 1024 1792Q918 1792 825 1751.5Q732 1711 662.5 1641.5Q593 1572 552.5 1479Q512 1386 512 1280L512 512ZM1024 256Q1051 256 1074 266Q1097 276 1114.5 293.5Q1132 311 1142 334Q1152 357 1152 384L896 384Q896 357 906 334Q916 311 933.5 293.5Q951 276 974 266Q997 256 1024 256Z"></path></svg>