<svg width="16" height="16" viewBox="0 0 16 16" fill="none" xmlns="http://www.w3.org/2000/svg">
<path d="M8 0C8.7364 0 9.44491 0.0948396 10.1255 0.284519C10.8061 0.474198 11.4421 0.74477 12.0335 1.09623C12.6304 1.44212 13.1715 1.85774 13.6569 2.3431C14.1423 2.82845 14.5579 3.3696 14.9038 3.96653C15.2552 4.55788 15.5258 5.19386 15.7155 5.87448C15.9052 6.55509 16 7.2636 16 8C16 8.7364 15.9052 9.44491 15.7155 10.1255C15.5258 10.8061 15.2552 11.4449 14.9038 12.0418C14.5579 12.6332 14.1423 13.1715 13.6569 13.6569C13.1715 14.1423 12.6304 14.5607 12.0335 14.9121C11.4421 15.258 10.8061 15.5258 10.1255 15.7155C9.44491 15.9052 8.7364 16 8 16C7.2636 16 6.55509 15.9052 5.87448 15.7155C5.19386 15.5258 4.55509 15.258 3.95816 14.9121C3.36681 14.5607 2.82845 14.1423 2.3431 13.6569C1.85774 13.1715 1.43933 12.6332 1.08787 12.0418C0.74198 11.4449 0.474198 10.8061 0.284519 10.1255C0.0948396 9.44491 0 8.7364 0 8C0 7.2636 0.0948396 6.55509 0.284519 5.87448C0.474198 5.19386 0.74198 4.55788 1.08787 3.96653C1.43933 3.3696 1.85774 2.82845 2.3431 2.3431C2.82845 1.85774 3.36681 1.44212 3.95816 1.09623C4.55509 0.74477 5.19386 0.474198 5.87448 0.284519C6.55509 0.0948396 7.2636 0 8 0ZM8 14.9958C8.64156 14.9958 9.26081 14.9121 9.85774 14.7448C10.4547 14.5774 11.0126 14.3431 11.5314 14.0418C12.0502 13.735 12.5216 13.3696 12.9456 12.9456C13.3696 12.5216 13.7322 12.0502 14.0335 11.5314C14.3403 11.0126 14.5774 10.4547 14.7448 9.85774C14.9121 9.26081 14.9958 8.64156 14.9958 8C14.9958 7.35844 14.9121 6.73919 14.7448 6.14226C14.5774 5.54533 14.3403 4.98745 14.0335 4.46862C13.7322 3.94979 13.3696 3.47838 12.9456 3.05439C12.5216 2.6304 12.0502 2.26778 11.5314 1.96653C11.0126 1.65969 10.4547 1.42259 9.85774 1.25523C9.26081 1.08787 8.64156 1.00418 8 1.00418C7.35844 1.00418 6.73919 1.08787 6.14226 1.25523C5.54533 1.42259 4.98745 1.65969 4.46862 1.96653C3.94979 2.26778 3.47838 2.6304 3.05439 3.05439C2.6304 3.47838 2.26499 3.94979 1.95816 4.46862C1.6569 4.98745 1.42259 5.54533 1.25523 6.14226C1.08787 6.73919 1.00418 7.35844 1.00418 8C1.00418 8.64156 1.08787 9.26081 1.25523 9.85774C1.42259 10.4547 1.6569 11.0126 1.95816 11.5314C2.26499 12.0502 2.6304 12.5216 3.05439 12.9456C3.47838 13.3696 3.94979 13.735 4.46862 14.0418C4.98745 14.3431 5.54533 14.5774 6.14226 14.7448C6.73919 14.9121 7.35844 14.9958 8 14.9958ZM7.46444 12.2845C7.46444 11.9887 7.70422 11.749 8 11.749V11.749C8.29578 11.749 8.53556 11.9887 8.53556 12.2845V12.2845C8.53556 12.5803 8.29578 12.8201 8 12.8201V12.8201C7.70422 12.8201 7.46444 12.5803 7.46444 12.2845V12.2845ZM8 3.71548C8.3682 3.71548 8.71409 3.78801 9.03766 3.93305C9.36123 4.07252 9.64296 4.26499 9.88284 4.51046C10.1283 4.75035 10.3208 5.03208 10.4603 5.35565C10.6053 5.67922 10.6778 6.0251 10.6778 6.39331C10.6778 6.72803 10.6248 7.02092 10.5188 7.27197C10.4128 7.51743 10.2789 7.74059 10.1172 7.94142C9.96095 8.14226 9.79079 8.32636 9.60669 8.49372C9.42259 8.65551 9.24965 8.82008 9.08787 8.98745C8.93166 9.14923 8.80056 9.32496 8.69456 9.51464C8.58856 9.69874 8.53556 9.90795 8.53556 10.1423V10.1423C8.53556 10.438 8.29578 10.6778 8 10.6778V10.6778C7.70422 10.6778 7.46444 10.438 7.46444 10.1423V10.1423C7.46444 9.80753 7.51743 9.51743 7.62343 9.27197C7.72943 9.02092 7.86053 8.79498 8.01674 8.59414C8.17852 8.39331 8.35146 8.21199 8.53556 8.05021C8.71966 7.88285 8.88982 7.71827 9.04603 7.55649C9.20781 7.38912 9.3417 7.21339 9.4477 7.02929C9.5537 6.84519 9.60669 6.63319 9.60669 6.39331C9.60669 6.17015 9.56485 5.96095 9.48117 5.76569C9.39749 5.57043 9.28312 5.40028 9.13807 5.25523C8.99303 5.11018 8.82287 4.99582 8.62761 4.91213C8.43236 4.82845 8.22315 4.78661 8 4.78661C7.77685 4.78661 7.56764 4.82845 7.37238 4.91213C7.17713 4.99582 7.00697 5.11018 6.86192 5.25523C6.71688 5.40028 6.60251 5.57043 6.51883 5.76569C6.50449 5.79914 6.49139 5.83299 6.47951 5.86726C6.38262 6.14673 6.15352 6.39331 5.85774 6.39331V6.39331C5.56196 6.39331 5.31573 6.15113 5.3738 5.86111C5.40867 5.68697 5.46119 5.51848 5.53138 5.35565C5.67085 5.03208 5.86053 4.75035 6.10042 4.51046C6.34589 4.26499 6.6304 4.07252 6.95397 3.93305C7.28312 3.78801 7.6318 3.71548 8 3.71548Z" fill="#ffffff"/>
</svg>
