<svg width="16" height="16" viewBox="0 0 16 16" fill="none" xmlns="http://www.w3.org/2000/svg">
<circle cx="8" cy="8" r="8" fill="#F4BA45"/>
<path d="M10.9873 11.3252C11.0785 11.4163 11.1484 11.5238 11.1973 11.6475C11.2461 11.7679 11.2705 11.8916 11.2705 12.0186C11.2705 12.1553 11.2445 12.2839 11.1924 12.4043C11.1436 12.5215 11.0752 12.624 10.9873 12.7119C10.8994 12.7998 10.7952 12.8698 10.6748 12.9219C10.5576 12.974 10.4307 13 10.2939 13C10.0238 13 9.79264 12.904 9.60059 12.7119L6.7002 9.81641C6.60905 9.72526 6.53906 9.61947 6.49023 9.49902C6.44141 9.37533 6.41699 9.25 6.41699 9.12305V3.98145C6.41699 3.84473 6.44141 3.71777 6.49023 3.60059C6.54232 3.48014 6.6123 3.37598 6.7002 3.28809C6.78809 3.2002 6.89062 3.13021 7.00781 3.07812C7.12826 3.02604 7.25684 3 7.39355 3C7.53027 3 7.65723 3.02604 7.77441 3.07812C7.89486 3.13021 7.99902 3.2002 8.08691 3.28809C8.1748 3.37598 8.24479 3.48014 8.29688 3.60059C8.34896 3.71777 8.375 3.84473 8.375 3.98145V8.71777L10.9873 11.3252Z" fill="white"/>
</svg>
