<svg width="2048px" height="2048px" viewBox="0 0 2048 2048" xmlns="http://www.w3.org/2000/svg" xmlns:xlink="http://www.w3.org/1999/xlink"><path transform="translate(0,2048) scale(1,-1)" d= "M1027 1600Q1148 1600 1254 1563Q1360 1526 1439 1456Q1518 1386 1563.5 1286Q1609 1186 1609 1060Q1609 994 1591.5 922.5Q1574 851 1537.5 792.5Q1501 734 1444.5 696Q1388 658 1310 658Q1224 658 1186 705Q1148 752 1147 834L1143 834Q1120 755 1068.5 706.5Q1017 658 931 658Q872 658 829.5 681.5Q787 705 759.5 743.5Q732 782 719 831.5Q706 881 706 934Q706 1004 724.5 1074Q743 1144 781 1199Q819 1254 877.5 1288.5Q936 1323 1016 1323Q1039 1323 1062.5 1317Q1086 1311 1107 1299Q1128 1287 1144 1269Q1160 1251 1168 1227L1168 1232Q1170 1252 1171.5 1272Q1173 1292 1175 1312L1268 1312L1244 1026Q1241 994 1237 961Q1233 928 1233 896Q1233 874 1235.5 847.5Q1238 821 1247 797.5Q1256 774 1273.5 758.5Q1291 743 1321 743Q1357 743 1385 758.5Q1413 774 1433.5 799Q1454 824 1468 856.5Q1482 889 1491 923.5Q1500 958 1503.5 992Q1507 1026 1507 1054Q1507 1164 1471 1250Q1435 1336 1370.5 1395Q1306 1454 1216.5 1485Q1127 1516 1021 1516Q906 1516 812.5 1473Q719 1430 652.5 1356.5Q586 1283 550 1185Q514 1087 514 976Q514 861 549.5 767.5Q585 674 651 608Q717 542 810.5 506Q904 470 1019 470Q1100 470 1179.5 483Q1259 496 1332 531L1332 439Q1257 407 1175 395.5Q1093 384 1012 384Q879 384 769 425.5Q659 467 579.5 543.5Q500 620 456 729Q412 838 412 972Q412 1107 457 1222Q502 1337 583 1421Q664 1505 777 1552.5Q890 1600 1027 1600ZM949 745Q1010 745 1049 779.5Q1088 814 1110 865Q1132 916 1140.5 974Q1149 1032 1149 1079Q1149 1113 1142 1142Q1135 1171 1119.5 1192Q1104 1213 1078 1225Q1052 1237 1015 1237Q957 1237 918 1207Q879 1177 855 1132Q831 1087 820.5 1033.5Q810 980 810 933Q810 900 817 866.5Q824 833 840 806Q856 779 883 762Q910 745 949 745ZM0 256L0 1792L384 1792L384 1664L128 1664L128 384L384 384L384 256L0 256ZM1664 1792L2048 1792L2048 256L1664 256L1664 384L1920 384L1920 1664L1664 1664L1664 1792Z"></path></svg>