<svg width="16" height="16" viewBox="0 0 16 16" fill="none" xmlns="http://www.w3.org/2000/svg">
<circle cx="8" cy="8" r="8" fill="#B53F4E"/>
<path d="M10.7686 7.01855C10.9053 7.01855 11.0322 7.0446 11.1494 7.09668C11.2699 7.14876 11.374 7.21875 11.4619 7.30664C11.5498 7.39453 11.6198 7.4987 11.6719 7.61914C11.724 7.73633 11.75 7.86328 11.75 8C11.75 8.13672 11.724 8.2653 11.6719 8.38574C11.6198 8.50293 11.5498 8.60547 11.4619 8.69336C11.374 8.78125 11.2699 8.85124 11.1494 8.90332C11.0322 8.9554 10.9053 8.98145 10.7686 8.98145H4.92871C4.79199 8.98145 4.66341 8.9554 4.54297 8.90332C4.42578 8.85124 4.32324 8.78125 4.23535 8.69336C4.14746 8.60547 4.07747 8.50293 4.02539 8.38574C3.97656 8.2653 3.95215 8.13672 3.95215 8C3.95215 7.86328 3.97656 7.73633 4.02539 7.61914C4.07747 7.4987 4.14746 7.39453 4.23535 7.30664C4.32324 7.21875 4.42578 7.14876 4.54297 7.09668C4.66341 7.0446 4.79199 7.01855 4.92871 7.01855H10.7686Z" fill="white"/>
</svg>
