<svg xmlns="http://www.w3.org/2000/svg" viewBox="0 0 16 16"><title>Call provider</title><g id="Layer_2" data-name="Layer 2"><g id="Layer_1-2" data-name="Layer 1"><path d="M1,1H0V0H1ZM1,3H0V2H1ZM1,5H0V4H1ZM1,7H0V6H1ZM1,9H0V8H1Zm0,2H0V10H1Zm0,2H0V12H1Zm0,1v1H0V14Zm0,1H2v1H1ZM3,1H2V0H3ZM3,15H4v1H3ZM5,1H4V0H5ZM5,15H6v1H5ZM7,1H6V0H7Zm6.73,10.69a1.19,1.19,0,0,1,.47.09,1.18,1.18,0,0,1,.4.27l1,1a1.41,1.41,0,0,1,.27.4A1.23,1.23,0,0,1,16,14a1.27,1.27,0,0,1-.09.47,1.56,1.56,0,0,1-.27.4l-.51.51a3.39,3.39,0,0,1-.5.37,2.51,2.51,0,0,1-.56.22,3,3,0,0,1-.73.08,4.47,4.47,0,0,1-1.23-.18,7.46,7.46,0,0,1-1.26-.52,8,8,0,0,1-1.24-.78,10.75,10.75,0,0,1-2.13-2.13,8,8,0,0,1-.78-1.24,7.46,7.46,0,0,1-.52-1.26A4.47,4.47,0,0,1,6,8.66a3.07,3.07,0,0,1,.08-.73,2.18,2.18,0,0,1,.22-.56,3.32,3.32,0,0,1,.37-.49l.51-.52a1.56,1.56,0,0,1,.4-.27A1.27,1.27,0,0,1,8.05,6a1.23,1.23,0,0,1,.47.09,1.41,1.41,0,0,1,.4.27l1,1a1.19,1.19,0,0,1,.36.87,1.05,1.05,0,0,1-.15.57,1.94,1.94,0,0,1-.32.41l-.32.31a.36.36,0,0,0-.15.25.22.22,0,0,0,.07.17L12,12.56a.23.23,0,0,0,.17.07.36.36,0,0,0,.25-.15l.31-.32a1.94,1.94,0,0,1,.41-.32A1.05,1.05,0,0,1,13.73,11.69ZM13.34,15a1.86,1.86,0,0,0,.52-.06,1.46,1.46,0,0,0,.38-.17,2.15,2.15,0,0,0,.32-.29l.37-.37A.21.21,0,0,0,15,14a.22.22,0,0,0-.07-.17l-1-1a.22.22,0,0,0-.17-.07.38.38,0,0,0-.25.15,4.4,4.4,0,0,1-.31.33,1.94,1.94,0,0,1-.42.32,1,1,0,0,1-.56.15,1.36,1.36,0,0,1-.48-.09,1.56,1.56,0,0,1-.4-.27L8.73,10.69a1.56,1.56,0,0,1-.27-.4,1.36,1.36,0,0,1-.09-.48,1,1,0,0,1,.15-.56,1.94,1.94,0,0,1,.32-.42l.32-.31a.34.34,0,0,0,.15-.25.24.24,0,0,0-.06-.17l-1-1A.21.21,0,0,0,8.05,7a.23.23,0,0,0-.17.07l-.37.37a2.73,2.73,0,0,0-.28.33,1.14,1.14,0,0,0-.17.37A1.86,1.86,0,0,0,7,8.66,3.6,3.6,0,0,0,7.29,10a7.13,7.13,0,0,0,.76,1.44A10.35,10.35,0,0,0,10.52,14a7.33,7.33,0,0,0,1.43.76A3.65,3.65,0,0,0,13.34,15ZM7,15H8v1H7ZM9,1H8V0H9Zm2,0H10V0h1Zm0,1V1h1V2Zm1,2H11V3h1Zm0,2H11V5h1ZM11,9.8a1.67,1.67,0,0,0,.25-.38A1.94,1.94,0,0,0,11.45,9H12v1h-.77ZM12,8h-.46a2.29,2.29,0,0,0-.11-.52A2.62,2.62,0,0,0,11.21,7H12Z"/></g></g></svg>