<svg width="16" height="16" viewBox="0 0 16 16" fill="none" xmlns="http://www.w3.org/2000/svg">
<circle cx="8" cy="8" r="8" fill="#979797"/>
<path d="M10.6517 9.2637C10.7483 9.36037 10.8197 9.46856 10.8657 9.58825C10.9141 9.71025 10.9382 9.83339 10.9382 9.95769C10.9382 10.082 10.9141 10.2051 10.8657 10.3271C10.8197 10.4468 10.7483 10.555 10.6517 10.6517C10.555 10.7483 10.4456 10.8209 10.3236 10.8692C10.204 10.9152 10.082 10.9382 9.95766 10.9382C9.83337 10.9382 9.71022 10.9141 9.58823 10.8657C9.46854 10.8197 9.36035 10.7483 9.26368 10.6517L5.13428 6.52228C5.03761 6.42561 4.9651 6.31627 4.91677 6.19428C4.87073 6.07458 4.84771 5.95259 4.84771 5.82829C4.84771 5.704 4.87073 5.582 4.91677 5.46231C4.96741 5.34262 5.04106 5.23443 5.13774 5.13776C5.23441 5.04108 5.34144 4.96858 5.45884 4.92024C5.58083 4.8719 5.70397 4.84774 5.82827 4.84774C5.95257 4.84774 6.07456 4.87075 6.19425 4.91679C6.31625 4.96513 6.42558 5.03763 6.52226 5.13431L10.6517 9.2637Z" fill="white"/>
</svg>
