<svg width="28" height="28" viewBox="0 0 28 28" fill="none" xmlns="http://www.w3.org/2000/svg">
<circle opacity="0.95" cx="14" cy="14" r="14" fill="white"/>
<path d="M10.8691 14.8975C10.8691 14.7744 10.8304 14.6719 10.7529 14.5898C10.68 14.5033 10.5843 14.4235 10.4658 14.3506C10.3519 14.2777 10.2288 14.207 10.0967 14.1387C9.96452 14.0658 9.83919 13.9837 9.7207 13.8926C9.60677 13.8014 9.51107 13.6921 9.43359 13.5645C9.36068 13.4368 9.32422 13.2819 9.32422 13.0996C9.32422 12.9264 9.3584 12.776 9.42676 12.6484C9.49967 12.5163 9.5931 12.4092 9.70703 12.3271C9.82552 12.2406 9.95768 12.1768 10.1035 12.1357C10.2539 12.0947 10.4089 12.0742 10.5684 12.0742C10.7005 12.0742 10.8372 12.0856 10.9785 12.1084C11.1198 12.1266 11.2497 12.1608 11.3682 12.2109V12.8535C11.1312 12.6803 10.8669 12.5938 10.5752 12.5938C10.5023 12.5938 10.4294 12.6029 10.3564 12.6211C10.2881 12.6348 10.2243 12.6621 10.165 12.7031C10.1104 12.7396 10.0648 12.7874 10.0283 12.8467C9.99186 12.9059 9.97363 12.9766 9.97363 13.0586C9.97363 13.1862 10.0124 13.2933 10.0898 13.3799C10.1673 13.4665 10.263 13.5462 10.377 13.6191C10.4909 13.6921 10.6139 13.7627 10.7461 13.8311C10.8828 13.8994 11.0081 13.9792 11.1221 14.0703C11.236 14.1569 11.3317 14.2617 11.4092 14.3848C11.4867 14.5078 11.5254 14.6582 11.5254 14.8359C11.5254 15.0273 11.4889 15.1891 11.416 15.3213C11.3431 15.4535 11.2451 15.5605 11.1221 15.6426C10.999 15.7246 10.8577 15.7839 10.6982 15.8203C10.5433 15.8568 10.3815 15.875 10.2129 15.875C10.1491 15.875 10.0762 15.8704 9.99414 15.8613C9.91667 15.8522 9.83691 15.8385 9.75488 15.8203C9.67741 15.8021 9.60221 15.7793 9.5293 15.752C9.45638 15.7246 9.39258 15.6927 9.33789 15.6562V14.9932C9.39258 15.0479 9.45638 15.098 9.5293 15.1436C9.60677 15.1846 9.6888 15.221 9.77539 15.2529C9.86198 15.2848 9.94857 15.3099 10.0352 15.3281C10.1217 15.3464 10.2038 15.3555 10.2812 15.3555C10.4362 15.3555 10.5729 15.3236 10.6914 15.2598C10.8099 15.1914 10.8691 15.0706 10.8691 14.8975ZM12.8174 15.875H12.25V12.1973H13.125L14.2324 14.959H14.2461L15.3945 12.1973H16.2285V15.875H15.627V12.9697H15.6133L14.4307 15.875H14.0342L12.8311 12.9902H12.8174V15.875ZM18.7236 14.8975C18.7236 14.779 18.6849 14.6764 18.6074 14.5898C18.5345 14.5033 18.4388 14.4235 18.3203 14.3506C18.2064 14.2777 18.0833 14.207 17.9512 14.1387C17.819 14.0658 17.6937 13.9837 17.5752 13.8926C17.4613 13.7969 17.3656 13.6875 17.2881 13.5645C17.2152 13.4368 17.1787 13.2819 17.1787 13.0996C17.1787 12.9264 17.2129 12.776 17.2812 12.6484C17.3542 12.5208 17.4476 12.4137 17.5615 12.3271C17.68 12.2406 17.8145 12.1768 17.9648 12.1357C18.1152 12.0947 18.2679 12.0742 18.4229 12.0742C18.555 12.0742 18.6917 12.0856 18.833 12.1084C18.9743 12.1266 19.1042 12.1608 19.2227 12.2109V12.8535C19.1087 12.7624 18.9834 12.6963 18.8467 12.6553C18.71 12.6143 18.571 12.5938 18.4297 12.5938C18.3568 12.5938 18.2839 12.6029 18.2109 12.6211C18.1426 12.6348 18.0788 12.6621 18.0195 12.7031C17.9648 12.7396 17.9193 12.7874 17.8828 12.8467C17.8464 12.9059 17.8281 12.9766 17.8281 13.0586C17.8281 13.1816 17.8669 13.2887 17.9443 13.3799C18.0218 13.4665 18.1175 13.5462 18.2314 13.6191C18.3454 13.6875 18.4684 13.7581 18.6006 13.8311C18.7373 13.8994 18.8626 13.9792 18.9766 14.0703C19.0905 14.1569 19.1862 14.2617 19.2637 14.3848C19.3411 14.5078 19.3799 14.6582 19.3799 14.8359C19.3799 15.0273 19.3434 15.1891 19.2705 15.3213C19.1976 15.4535 19.0996 15.5605 18.9766 15.6426C18.8535 15.7246 18.7122 15.7839 18.5527 15.8203C18.3978 15.8568 18.236 15.875 18.0674 15.875C18.0036 15.875 17.9307 15.8704 17.8486 15.8613C17.7712 15.8522 17.6914 15.8385 17.6094 15.8203C17.5319 15.7975 17.4567 15.7747 17.3838 15.752C17.3109 15.7246 17.2471 15.6927 17.1924 15.6562V14.9932C17.3109 15.1025 17.4567 15.1914 17.6299 15.2598C17.8076 15.3236 17.9762 15.3555 18.1357 15.3555C18.2907 15.3555 18.4274 15.3236 18.5459 15.2598C18.6644 15.196 18.7236 15.0752 18.7236 14.8975ZM21 8.875V18.5H11.9971L8.75 21.7471V18.5H7V8.875H21ZM20.125 9.75H7.875V17.625H9.625V19.6279L11.6279 17.625H20.125V9.75Z" fill="#003D60"/>
</svg>
