<svg width="28" height="28" viewBox="0 0 28 28" fill="none" xmlns="http://www.w3.org/2000/svg">
<g clip-path="url(#clip0)">
<g filter="url(#filter0_ii)">
<path d="M11.4647 13.1823V19.569C11.4647 20.588 11.8933 20.6808 12.6553 20.6808L19.1388 20.7106L22.0026 23.8756V20.7106H22.5978C22.7828 20.7098 22.9657 20.6725 23.1362 20.6006C23.3069 20.5289 23.4616 20.4241 23.5917 20.2924C23.722 20.1605 23.825 20.0043 23.8951 19.8324C23.9651 19.6606 24.0007 19.4766 24 19.291V13.2032C24.0007 13.0176 23.9651 12.8337 23.8951 12.6618C23.825 12.49 23.722 12.3338 23.5917 12.2019C23.4616 12.07 23.3069 11.9653 23.1362 11.8935C22.9657 11.8218 22.7828 11.7844 22.5978 11.7837L12.8697 11.7628C12.6846 11.7632 12.5013 11.8002 12.3305 11.8718C12.1596 11.9434 12.0045 12.048 11.874 12.1799C11.7435 12.3118 11.6401 12.4682 11.5698 12.6402C11.4996 12.8122 11.4638 12.9964 11.4647 13.1823Z" fill="url(#paint0_linear)"/>
</g>
<g filter="url(#filter1_dii)">
<path d="M19.9156 6.79924V14.8939C19.9156 16.1856 19.3713 16.303 18.4038 16.303L10.172 16.3409L6.53608 20.3523V16.3409H5.78018C5.54541 16.3399 5.31314 16.2926 5.09662 16.2016C4.8801 16.1106 4.68359 15.9779 4.51828 15.8108C4.35298 15.6438 4.22213 15.4456 4.13321 15.2279C4.04428 15.0101 3.99903 14.777 4.00002 14.5416V6.82576C3.99903 6.59047 4.04428 6.35729 4.13321 6.13954C4.22213 5.92177 4.35298 5.72371 4.51828 5.55663C4.68359 5.38955 4.8801 5.25675 5.09662 5.16579C5.31314 5.07484 5.54541 5.02751 5.78018 5.02651L18.1317 5C18.3668 5.0005 18.5994 5.04745 18.8164 5.13819C19.0333 5.22893 19.2303 5.36165 19.3961 5.52878C19.5617 5.69591 19.6929 5.89415 19.7821 6.11215C19.8712 6.33015 19.9166 6.56363 19.9156 6.79924Z" fill="url(#paint1_linear)"/>
</g>
<g filter="url(#filter2_d)">
<path d="M7.2764 9.22402C7.2764 8.89076 7.54658 8.62064 7.87986 8.62064H16.3282C16.6615 8.62064 16.9317 8.89076 16.9317 9.22402C16.9317 9.5574 16.6615 9.82753 16.3282 9.82753H7.87986C7.54658 9.82753 7.2764 9.5574 7.2764 9.22402Z" fill="url(#paint2_linear)"/>
</g>
<g filter="url(#filter3_d)">
<path d="M7.2764 11.8097C7.2764 11.4764 7.54658 11.2061 7.87986 11.2061H14.6041C14.9373 11.2061 15.2076 11.4764 15.2076 11.8097C15.2076 12.1429 14.9373 12.4132 14.6041 12.4132H7.87986C7.54658 12.4132 7.2764 12.1429 7.2764 11.8097Z" fill="url(#paint3_linear)"/>
</g>
</g>
<defs>
<filter id="filter0_ii" x="10.9647" y="11.2628" width="13.0353" height="12.6128" filterUnits="userSpaceOnUse" color-interpolation-filters="sRGB">
<feFlood flood-opacity="0" result="BackgroundImageFix"/>
<feBlend mode="normal" in="SourceGraphic" in2="BackgroundImageFix" result="shape"/>
<feColorMatrix in="SourceAlpha" type="matrix" values="0 0 0 0 0 0 0 0 0 0 0 0 0 0 0 0 0 0 127 0" result="hardAlpha"/>
<feOffset dx="-0.2" dy="-0.2"/>
<feGaussianBlur stdDeviation="2"/>
<feComposite in2="hardAlpha" operator="arithmetic" k2="-1" k3="1"/>
<feColorMatrix type="matrix" values="0 0 0 0 1 0 0 0 0 1 0 0 0 0 1 0 0 0 0.17 0"/>
<feBlend mode="normal" in2="shape" result="effect1_innerShadow"/>
<feColorMatrix in="SourceAlpha" type="matrix" values="0 0 0 0 0 0 0 0 0 0 0 0 0 0 0 0 0 0 127 0" result="hardAlpha"/>
<feOffset dx="-0.5" dy="-0.5"/>
<feGaussianBlur stdDeviation="2"/>
<feComposite in2="hardAlpha" operator="arithmetic" k2="-1" k3="1"/>
<feColorMatrix type="matrix" values="0 0 0 0 1 0 0 0 0 1 0 0 0 0 1 0 0 0 0.16 0"/>
<feBlend mode="normal" in2="effect1_innerShadow" result="effect2_innerShadow"/>
</filter>
<filter id="filter1_dii" x="0" y="1" width="31.9156" height="31.3523" filterUnits="userSpaceOnUse" color-interpolation-filters="sRGB">
<feFlood flood-opacity="0" result="BackgroundImageFix"/>
<feColorMatrix in="SourceAlpha" type="matrix" values="0 0 0 0 0 0 0 0 0 0 0 0 0 0 0 0 0 0 127 0"/>
<feOffset dx="4" dy="4"/>
<feGaussianBlur stdDeviation="4"/>
<feColorMatrix type="matrix" values="0 0 0 0 0 0 0 0 0 0 0 0 0 0 0 0 0 0 0.25 0"/>
<feBlend mode="normal" in2="BackgroundImageFix" result="effect1_dropShadow"/>
<feBlend mode="normal" in="SourceGraphic" in2="effect1_dropShadow" result="shape"/>
<feColorMatrix in="SourceAlpha" type="matrix" values="0 0 0 0 0 0 0 0 0 0 0 0 0 0 0 0 0 0 127 0" result="hardAlpha"/>
<feOffset dx="-2" dy="-2"/>
<feGaussianBlur stdDeviation="2"/>
<feComposite in2="hardAlpha" operator="arithmetic" k2="-1" k3="1"/>
<feColorMatrix type="matrix" values="0 0 0 0 1 0 0 0 0 1 0 0 0 0 1 0 0 0 0.17 0"/>
<feBlend mode="normal" in2="shape" result="effect2_innerShadow"/>
<feColorMatrix in="SourceAlpha" type="matrix" values="0 0 0 0 0 0 0 0 0 0 0 0 0 0 0 0 0 0 127 0" result="hardAlpha"/>
<feOffset dx="-1" dy="-1"/>
<feGaussianBlur stdDeviation="2"/>
<feComposite in2="hardAlpha" operator="arithmetic" k2="-1" k3="1"/>
<feColorMatrix type="matrix" values="0 0 0 0 1 0 0 0 0 1 0 0 0 0 1 0 0 0 0.16 0"/>
<feBlend mode="normal" in2="effect2_innerShadow" result="effect3_innerShadow"/>
</filter>
<filter id="filter2_d" x="6.9764" y="8.62064" width="10.2553" height="1.80689" filterUnits="userSpaceOnUse" color-interpolation-filters="sRGB">
<feFlood flood-opacity="0" result="BackgroundImageFix"/>
<feColorMatrix in="SourceAlpha" type="matrix" values="0 0 0 0 0 0 0 0 0 0 0 0 0 0 0 0 0 0 127 0"/>
<feOffset dy="0.3"/>
<feGaussianBlur stdDeviation="0.15"/>
<feColorMatrix type="matrix" values="0 0 0 0 0 0 0 0 0 0 0 0 0 0 0 0 0 0 0.25 0"/>
<feBlend mode="normal" in2="BackgroundImageFix" result="effect1_dropShadow"/>
<feBlend mode="normal" in="SourceGraphic" in2="effect1_dropShadow" result="shape"/>
</filter>
<filter id="filter3_d" x="6.9764" y="11.2061" width="8.53116" height="1.80702" filterUnits="userSpaceOnUse" color-interpolation-filters="sRGB">
<feFlood flood-opacity="0" result="BackgroundImageFix"/>
<feColorMatrix in="SourceAlpha" type="matrix" values="0 0 0 0 0 0 0 0 0 0 0 0 0 0 0 0 0 0 127 0"/>
<feOffset dy="0.3"/>
<feGaussianBlur stdDeviation="0.15"/>
<feColorMatrix type="matrix" values="0 0 0 0 0 0 0 0 0 0 0 0 0 0 0 0 0 0 0.25 0"/>
<feBlend mode="normal" in2="BackgroundImageFix" result="effect1_dropShadow"/>
<feBlend mode="normal" in="SourceGraphic" in2="effect1_dropShadow" result="shape"/>
</filter>
<linearGradient id="paint0_linear" x1="15.8749" y1="13.1251" x2="22.2187" y2="16.0465" gradientUnits="userSpaceOnUse">
<stop stop-color="#009CE6"/>
<stop offset="0.915611" stop-color="#00F3FF"/>
</linearGradient>
<linearGradient id="paint1_linear" x1="1.07002" y1="17.7522" x2="14.7371" y2="27.5648" gradientUnits="userSpaceOnUse">
<stop stop-color="#EFEFEF"/>
<stop offset="1" stop-color="white"/>
</linearGradient>
<linearGradient id="paint2_linear" x1="13.2975" y1="9.4884" x2="13.8575" y2="7.50312" gradientUnits="userSpaceOnUse">
<stop stop-color="#0742AB"/>
<stop offset="1" stop-color="#0076E4"/>
</linearGradient>
<linearGradient id="paint3_linear" x1="12.2224" y1="12.0739" x2="12.8807" y2="10.1568" gradientUnits="userSpaceOnUse">
<stop stop-color="#0742AB"/>
<stop offset="1" stop-color="#0076E4"/>
</linearGradient>
<clipPath id="clip0">
<rect width="28" height="28" fill="white"/>
</clipPath>
</defs>
</svg>
