<svg width="2048px" height="2048px" viewBox="0 0 2048 2048" xmlns="http://www.w3.org/2000/svg" xmlns:xlink="http://www.w3.org/1999/xlink"><path transform="translate(0,2048) scale(1,-1)" d= "M0 1792L2048 1792L2048 1033Q2020 1068 1988 1100Q1956 1132 1920 1159L1920 1664L128 1664L128 512L740 512Q743 480 748.5 448Q754 416 762 384L0 384L0 1792ZM1472 1152Q1591 1152 1696 1106.5Q1801 1061 1879 983Q1957 905 2002.5 800Q2048 695 2048 576Q2048 457 2002.5 352Q1957 247 1879 169Q1801 91 1696 45.5Q1591 0 1472 0Q1353 0 1248 45.5Q1143 91 1065 169Q987 247 941.5 352Q896 457 896 576Q896 695 941.5 800Q987 905 1065 983Q1143 1061 1248 1106.5Q1353 1152 1472 1152ZM1472 128Q1565 128 1646.5 163.5Q1728 199 1788.5 259.5Q1849 320 1884.5 401.5Q1920 483 1920 576Q1920 669 1884.5 750.5Q1849 832 1788.5 892.5Q1728 953 1646.5 988.5Q1565 1024 1472 1024Q1379 1024 1297.5 988.5Q1216 953 1155.5 892.5Q1095 832 1059.5 750.5Q1024 669 1024 576Q1024 483 1059.5 401.5Q1095 320 1155.5 259.5Q1216 199 1297.5 163.5Q1379 128 1472 128ZM1408 512L1408 896L1536 896L1536 512L1408 512ZM1408 256L1408 384L1536 384L1536 256L1408 256Z"></path></svg>