<svg width="33" height="32" viewBox="0 0 33 32" fill="#002050" xmlns="http://www.w3.org/2000/svg">
<path d="M20.3125 18.7656L16.0781 23L17.4844 24.4062L13.9531 27.9531C13.2969 28.6094 12.5365 29.1146 11.6719 29.4688C10.8177 29.8229 9.92708 30 9 30C8.23958 30 7.5 29.8854 6.78125 29.6562C6.07292 29.4167 5.41667 29.0677 4.8125 28.6094L1.70312 31.7031L0.296875 30.2969L3.39062 27.1875C2.93229 26.5833 2.58333 25.9271 2.34375 25.2188C2.11458 24.5 2 23.7604 2 23C2 22.0729 2.17708 21.1823 2.53125 20.3281C2.88542 19.4635 3.39062 18.7031 4.04688 18.0469L7.59375 14.5156L9 15.9219L13.2344 11.6875L14.6562 13.0938L10.4062 17.3438L14.6562 21.5938L18.9062 17.3438L20.3125 18.7656ZM9 28C9.66667 28 10.3021 27.875 10.9062 27.625C11.5208 27.3646 12.0625 27 12.5312 26.5312L14.6562 24.4062L7.59375 17.3438L5.46875 19.4688C5 19.9375 4.63542 20.4792 4.375 21.0938C4.125 21.6979 4 22.3333 4 23C4 23.6875 4.13021 24.3385 4.39062 24.9531C4.65104 25.5573 5.00521 26.0885 5.45312 26.5469C5.91146 26.9948 6.44271 27.349 7.04688 27.6094C7.66146 27.8698 8.3125 28 9 28ZM28.6094 4.8125C29.0677 5.41667 29.4115 6.07812 29.6406 6.79688C29.8802 7.50521 30 8.23958 30 9C30 9.92708 29.8229 10.8229 29.4688 11.6875C29.1146 12.5417 28.6094 13.2969 27.9531 13.9531L24.4062 17.4844L14.5156 7.59375L18.0469 4.04688C18.7031 3.39062 19.4583 2.88542 20.3125 2.53125C21.1771 2.17708 22.0729 2 23 2C23.7604 2 24.4948 2.11979 25.2031 2.35938C25.9219 2.58854 26.5833 2.93229 27.1875 3.39062L30.2969 0.296875L31.7031 1.70312L28.6094 4.8125ZM26.5312 12.5312C27 12.0625 27.3594 11.526 27.6094 10.9219C27.8698 10.3073 28 9.66667 28 9C28 8.3125 27.8646 7.66667 27.5938 7.0625C27.3333 6.45833 26.974 5.93229 26.5156 5.48438C26.0677 5.02604 25.5417 4.66667 24.9375 4.40625C24.3333 4.13542 23.6875 4 23 4C22.3333 4 21.6927 4.13021 21.0781 4.39062C20.474 4.64062 19.9375 5 19.4688 5.46875L17.3438 7.59375L24.4062 14.6562L26.5312 12.5312Z" transform="translate(0.35791 -0.105469)" fill="#42A3EA"/>
</svg>
