<svg width="28" height="28" viewBox="0 0 28 28" fill="none" xmlns="http://www.w3.org/2000/svg">
<path fill-rule="evenodd" clip-rule="evenodd" d="M14 2C7.23944 2 2 6.95211 2 13.6402C2 17.1388 3.43421 20.1618 5.76901 22.2503C5.96459 22.4266 6.0829 22.6704 6.09256 22.9336L6.15775 25.068C6.17948 25.7489 6.88209 26.1907 7.50503 25.9179L9.88571 24.8676C10.0885 24.7783 10.3131 24.7614 10.5256 24.8193C11.6193 25.1211 12.7855 25.2805 14 25.2805C20.7606 25.2805 26 20.3284 26 13.6402C26 6.95211 20.7606 2 14 2Z" fill="url(#paint0_linear)"/>
<path fill-rule="evenodd" clip-rule="evenodd" d="M6.79661 17.0441L10.3218 11.4522C10.8819 10.5636 12.0843 10.3415 12.9246 10.9717L15.7278 13.0747C15.9861 13.2679 16.3387 13.2654 16.5946 13.0723L20.3805 10.199C20.8851 9.81515 21.5467 10.4212 21.2063 10.9572L17.6835 16.5467C17.1234 17.4353 15.921 17.6574 15.0807 17.0272L12.2775 14.9242C12.0191 14.731 11.6666 14.7335 11.4107 14.9266L7.62237 17.8023C7.11774 18.1862 6.45617 17.5801 6.79661 17.0441Z" fill="white"/>
<defs>
<linearGradient id="paint0_linear" x1="14" y1="2" x2="14" y2="26" gradientUnits="userSpaceOnUse">
<stop stop-color="#00B2FF"/>
<stop offset="1" stop-color="#006AFF"/>
</linearGradient>
</defs>
</svg>
