<svg width="28" height="28" viewBox="0 0 28 28" fill="none" xmlns="http://www.w3.org/2000/svg">
<g clip-path="url(#clip0)">
<g filter="url(#filter0_ii)">
<path d="M11.1743 6.14765C11.1743 4.96153 12.1359 4 13.322 4H20.7045C21.8907 4 22.8522 4.96153 22.8522 6.14765V21.8524C22.8522 23.0385 21.8907 24 20.7045 24H13.322C12.1359 24 11.1743 23.0385 11.1743 21.8524V6.14765Z" fill="url(#paint0_linear)"/>
</g>
<g filter="url(#filter1_i)">
<path d="M17.7516 22.5924C17.7516 23.0001 17.4211 23.3306 17.0133 23.3306C16.6056 23.3306 16.2751 23.0001 16.2751 22.5924C16.2751 22.1846 16.6056 21.8541 17.0133 21.8541C17.4211 21.8541 17.7516 22.1846 17.7516 22.5924Z" fill="url(#paint1_linear)"/>
</g>
<g filter="url(#filter2_dii)">
<path d="M20.302 10.4298V17.6505C20.302 18.8027 19.7788 18.9075 18.8307 18.9075L10.9144 18.9412L7.43773 22.5229V18.9412H6.71114C6.48547 18.9403 6.26221 18.8981 6.0541 18.817C5.84597 18.7358 5.65707 18.6173 5.49818 18.4683C5.33929 18.3193 5.21352 18.1426 5.12804 17.9483C5.04257 17.7541 4.99907 17.5461 5.00002 17.3362V10.4602C4.99907 10.2503 5.04257 10.0423 5.12804 9.84804C5.21352 9.65379 5.33929 9.47717 5.49818 9.32816C5.65707 9.17904 5.84597 9.06066 6.0541 8.97947C6.26221 8.89834 6.48547 8.85611 6.71114 8.85524L18.58 8.83157C19.0361 8.83157 19.4736 8.99985 19.7963 9.29954C20.1192 9.59917 20.3011 10.0057 20.302 10.4298Z" fill="url(#paint2_linear)"/>
</g>
<g filter="url(#filter3_d)">
<path fill-rule="evenodd" clip-rule="evenodd" d="M9.74919 14.8827C9.75407 15.0337 9.72732 15.1841 9.67082 15.3242C9.61419 15.4643 9.52907 15.5912 9.42069 15.6965C9.07281 15.9766 8.62977 16.1105 8.18506 16.0698C7.82351 16.0823 7.46448 16.0053 7.13978 15.8458V14.9611C7.43242 15.2257 7.81294 15.372 8.20745 15.3717C8.36992 15.3832 8.53124 15.337 8.66289 15.2411C8.7034 15.2065 8.73601 15.1636 8.75856 15.1152C8.78106 15.067 8.79306 15.0143 8.79356 14.9611C8.79306 14.8883 8.77569 14.8167 8.74261 14.7518C8.70956 14.6871 8.6618 14.6308 8.60316 14.5878C8.42906 14.4655 8.24263 14.3616 8.04693 14.278C7.43097 13.9867 7.12485 13.5948 7.12485 13.0983C7.11827 12.9321 7.151 12.7667 7.22041 12.6156C7.28983 12.4644 7.39394 12.3318 7.52429 12.2284C7.83087 11.9976 8.20862 11.8813 8.59196 11.8999C8.92494 11.8901 9.25682 11.9433 9.57007 12.0567V12.9153C9.29819 12.7273 8.97469 12.6282 8.64422 12.6317C8.49825 12.6232 8.35366 12.664 8.23358 12.7473C8.18495 12.7793 8.14533 12.8232 8.11853 12.8748C8.09173 12.9265 8.07865 12.9841 8.08052 13.0423C8.07927 13.1022 8.09058 13.1617 8.11373 13.2171C8.13687 13.2723 8.17135 13.3222 8.21492 13.3633C8.36188 13.4851 8.52686 13.5833 8.70395 13.6545C8.98619 13.7771 9.24519 13.9476 9.46919 14.1585C9.65444 14.3535 9.75507 14.6138 9.74919 14.8827ZM14.9792 16.014H14.0832V13.6061C14.0832 13.3572 14.0945 13.0697 14.1168 12.7437H14.0945C14.0628 12.9241 14.0205 13.1023 13.9676 13.2776L13.0081 16.014H12.2615L11.3021 13.3037C11.25 13.1195 11.2076 12.9325 11.1752 12.7437H11.1491C11.1752 13.1171 11.1863 13.468 11.1863 13.789V16.0288H10.3949V11.9859H11.724L12.549 14.3751C12.6116 14.5626 12.659 14.7548 12.6908 14.95C12.7333 14.753 12.787 14.5586 12.8513 14.3676L13.6726 11.9859H14.968L14.9792 16.014ZM18.262 15.3248C18.3186 15.1845 18.345 15.0338 18.3391 14.8827C18.345 14.6138 18.2444 14.3535 18.0591 14.1585C17.8351 13.9476 17.5761 13.7771 17.2939 13.6545C17.1172 13.5823 16.9524 13.4842 16.8049 13.3633C16.7612 13.3222 16.7267 13.2723 16.7036 13.2171C16.6805 13.1617 16.6692 13.1022 16.6705 13.0423C16.6696 12.9843 16.6831 12.927 16.7099 12.8756C16.7366 12.8241 16.7756 12.7801 16.8235 12.7473C16.9436 12.664 17.0881 12.6232 17.2341 12.6316C17.5659 12.6281 17.8905 12.7272 18.1637 12.9153V12.0567C17.8504 11.9437 17.5186 11.8904 17.1856 11.8999C16.8011 11.8814 16.4222 11.9976 16.1142 12.2284C15.9845 12.3323 15.8809 12.4651 15.8116 12.6161C15.7422 12.7671 15.7091 12.9322 15.7147 13.0982C15.7147 13.5948 16.0209 13.9867 16.6369 14.278C16.8325 14.3616 17.019 14.4653 17.1931 14.5878C17.2517 14.6308 17.2995 14.6871 17.3325 14.7518C17.3656 14.8167 17.383 14.8883 17.3835 14.9611C17.3847 15.0147 17.3736 15.0678 17.351 15.1165C17.3284 15.165 17.2947 15.2077 17.2529 15.2411C17.1211 15.337 16.9599 15.3832 16.7974 15.3717C16.4039 15.3725 16.0244 15.2261 15.7335 14.9611V15.8458C16.0566 16.0057 16.4146 16.0827 16.775 16.0698C17.2197 16.1108 17.663 15.977 18.0106 15.6965C18.1197 15.5917 18.2054 15.4651 18.262 15.3248Z" fill="url(#paint3_linear)"/>
</g>
</g>
<defs>
<filter id="filter0_ii" x="10.6743" y="3.5" width="12.1778" height="20.5" filterUnits="userSpaceOnUse" color-interpolation-filters="sRGB">
<feFlood flood-opacity="0" result="BackgroundImageFix"/>
<feBlend mode="normal" in="SourceGraphic" in2="BackgroundImageFix" result="shape"/>
<feColorMatrix in="SourceAlpha" type="matrix" values="0 0 0 0 0 0 0 0 0 0 0 0 0 0 0 0 0 0 127 0" result="hardAlpha"/>
<feOffset dx="-0.2" dy="-0.2"/>
<feGaussianBlur stdDeviation="2"/>
<feComposite in2="hardAlpha" operator="arithmetic" k2="-1" k3="1"/>
<feColorMatrix type="matrix" values="0 0 0 0 1 0 0 0 0 1 0 0 0 0 1 0 0 0 0.17 0"/>
<feBlend mode="normal" in2="shape" result="effect1_innerShadow"/>
<feColorMatrix in="SourceAlpha" type="matrix" values="0 0 0 0 0 0 0 0 0 0 0 0 0 0 0 0 0 0 127 0" result="hardAlpha"/>
<feOffset dx="-0.5" dy="-0.5"/>
<feGaussianBlur stdDeviation="2"/>
<feComposite in2="hardAlpha" operator="arithmetic" k2="-1" k3="1"/>
<feColorMatrix type="matrix" values="0 0 0 0 1 0 0 0 0 1 0 0 0 0 1 0 0 0 0.16 0"/>
<feBlend mode="normal" in2="effect1_innerShadow" result="effect2_innerShadow"/>
</filter>
<filter id="filter1_i" x="16.2751" y="21.8541" width="1.47651" height="2.47651" filterUnits="userSpaceOnUse" color-interpolation-filters="sRGB">
<feFlood flood-opacity="0" result="BackgroundImageFix"/>
<feBlend mode="normal" in="SourceGraphic" in2="BackgroundImageFix" result="shape"/>
<feColorMatrix in="SourceAlpha" type="matrix" values="0 0 0 0 0 0 0 0 0 0 0 0 0 0 0 0 0 0 127 0" result="hardAlpha"/>
<feOffset dy="1"/>
<feGaussianBlur stdDeviation="0.5"/>
<feComposite in2="hardAlpha" operator="arithmetic" k2="-1" k3="1"/>
<feColorMatrix type="matrix" values="0 0 0 0 0 0 0 0 0 0 0 0 0 0 0 0 0 0 0.25 0"/>
<feBlend mode="normal" in2="shape" result="effect1_innerShadow"/>
</filter>
<filter id="filter2_dii" x="1" y="4.83157" width="31.302" height="29.6913" filterUnits="userSpaceOnUse" color-interpolation-filters="sRGB">
<feFlood flood-opacity="0" result="BackgroundImageFix"/>
<feColorMatrix in="SourceAlpha" type="matrix" values="0 0 0 0 0 0 0 0 0 0 0 0 0 0 0 0 0 0 127 0"/>
<feOffset dx="4" dy="4"/>
<feGaussianBlur stdDeviation="4"/>
<feColorMatrix type="matrix" values="0 0 0 0 0 0 0 0 0 0 0 0 0 0 0 0 0 0 0.25 0"/>
<feBlend mode="normal" in2="BackgroundImageFix" result="effect1_dropShadow"/>
<feBlend mode="normal" in="SourceGraphic" in2="effect1_dropShadow" result="shape"/>
<feColorMatrix in="SourceAlpha" type="matrix" values="0 0 0 0 0 0 0 0 0 0 0 0 0 0 0 0 0 0 127 0" result="hardAlpha"/>
<feOffset dx="-2" dy="-2"/>
<feGaussianBlur stdDeviation="2"/>
<feComposite in2="hardAlpha" operator="arithmetic" k2="-1" k3="1"/>
<feColorMatrix type="matrix" values="0 0 0 0 1 0 0 0 0 1 0 0 0 0 1 0 0 0 0.17 0"/>
<feBlend mode="normal" in2="shape" result="effect2_innerShadow"/>
<feColorMatrix in="SourceAlpha" type="matrix" values="0 0 0 0 0 0 0 0 0 0 0 0 0 0 0 0 0 0 127 0" result="hardAlpha"/>
<feOffset dx="-1" dy="-1"/>
<feGaussianBlur stdDeviation="2"/>
<feComposite in2="hardAlpha" operator="arithmetic" k2="-1" k3="1"/>
<feColorMatrix type="matrix" values="0 0 0 0 1 0 0 0 0 1 0 0 0 0 1 0 0 0 0.16 0"/>
<feBlend mode="normal" in2="effect2_innerShadow" result="effect3_innerShadow"/>
</filter>
<filter id="filter3_d" x="6.82402" y="11.898" width="11.8159" height="4.77909" filterUnits="userSpaceOnUse" color-interpolation-filters="sRGB">
<feFlood flood-opacity="0" result="BackgroundImageFix"/>
<feColorMatrix in="SourceAlpha" type="matrix" values="0 0 0 0 0 0 0 0 0 0 0 0 0 0 0 0 0 0 127 0"/>
<feOffset dy="0.3"/>
<feGaussianBlur stdDeviation="0.15"/>
<feColorMatrix type="matrix" values="0 0 0 0 0 0 0 0 0 0 0 0 0 0 0 0 0 0 0.25 0"/>
<feBlend mode="normal" in2="BackgroundImageFix" result="effect1_dropShadow"/>
<feBlend mode="normal" in="SourceGraphic" in2="effect1_dropShadow" result="shape"/>
</filter>
<linearGradient id="paint0_linear" x1="14.2576" y1="9.41528" x2="21.9945" y2="8.51579" gradientUnits="userSpaceOnUse">
<stop stop-color="#009CE6"/>
<stop offset="1" stop-color="#00F3FF"/>
</linearGradient>
<linearGradient id="paint1_linear" x1="16.6208" y1="22.476" x2="17.4751" y2="23.3361" gradientUnits="userSpaceOnUse">
<stop stop-color="#0742AB"/>
<stop offset="1" stop-color="#0076E4"/>
</linearGradient>
<linearGradient id="paint2_linear" x1="2.18297" y1="20.204" x2="14.6358" y2="29.843" gradientUnits="userSpaceOnUse">
<stop stop-color="#EFEFEF"/>
<stop offset="1" stop-color="white"/>
</linearGradient>
<linearGradient id="paint3_linear" x1="14.1185" y1="14.9026" x2="17.7739" y2="10.5551" gradientUnits="userSpaceOnUse">
<stop stop-color="#0742AB"/>
<stop offset="1" stop-color="#0076E4"/>
</linearGradient>
<clipPath id="clip0">
<rect width="28" height="28" fill="white"/>
</clipPath>
</defs>
</svg>
