<svg width="73" height="73" viewBox="0 0 73 73" fill="none" xmlns="http://www.w3.org/2000/svg">
  <path opacity="0.3" d="M8.5 36.5C8.5 21.036 21.036 8.5 36.5 8.5C51.964 8.5 64.5 21.036 64.5 36.5C64.5 51.964 51.964 64.5 36.5 64.5C21.036 64.5 8.5 51.964 8.5 36.5Z" stroke="white"/>
  <path opacity="0.3" d="M14.5 36.5C14.5 24.3497 24.3497 14.5 36.5 14.5C48.6503 14.5 58.5 24.3497 58.5 36.5C58.5 48.6503 48.6503 58.5 36.5 58.5C24.3497 58.5 14.5 48.6503 14.5 36.5Z" stroke="white"/>
  <path opacity="0.1" fill-rule="evenodd" clip-rule="evenodd" d="M1 36.5C1 16.8939 16.8939 1 36.5 1V1V1C56.1061 1 72 16.8939 72 36.5V36.5C72 56.1061 56.1061 72 36.5 72V72C16.8939 72 1 56.1061 1 36.5V36.5Z" stroke="white"/>
  <path fill-rule="evenodd" clip-rule="evenodd" d="M36.5 54C46.165 54 54 46.165 54 36.5C54 26.835 46.165 19 36.5 19C26.835 19 19 26.835 19 36.5C19 46.165 26.835 54 36.5 54Z" fill="white"/>
  <path d="M45 40H42V42H34L31 45V42H29V33H31V30H45V40ZM41 34H30V41H32V42.5859C32.2656 42.3203 32.526 42.0547 32.7812 41.7891C33.0417 41.5234 33.3099 41.2604 33.5859 41H41V34ZM44 31H32V33H42V39H44V31Z" fill="black"/>
</svg>
