<svg xmlns="http://www.w3.org/2000/svg" viewBox="0 0 10.5 10.5"><title>Asset 1</title><g id="Layer_2" data-name="Layer 2"><g id="Layer_1-2" data-name="Layer 1"><path d="M9,7.5a1.4,1.4,0,0,1,.58.12,1.47,1.47,0,0,1,.8.8,1.46,1.46,0,0,1,0,1.16,1.47,1.47,0,0,1-.8.8,1.46,1.46,0,0,1-1.16,0,1.44,1.44,0,0,1-.48-.32,1.55,1.55,0,0,1-.32-.48A1.4,1.4,0,0,1,7.5,9a1.43,1.43,0,0,1,.21-.76L6,6.54a1.48,1.48,0,0,1-1.52,0l-1.7,1.7A1.43,1.43,0,0,1,3,9a1.4,1.4,0,0,1-.12.58,1.55,1.55,0,0,1-.32.48,1.55,1.55,0,0,1-.48.32,1.4,1.4,0,0,1-.58.12,1.4,1.4,0,0,1-.58-.12,1.44,1.44,0,0,1-.48-.32,1.55,1.55,0,0,1-.32-.48,1.46,1.46,0,0,1,0-1.16,1.55,1.55,0,0,1,.32-.48,1.44,1.44,0,0,1,.48-.32A1.4,1.4,0,0,1,1.5,7.5a1.43,1.43,0,0,1,.76.21L4,6A1.48,1.48,0,0,1,4,4.49l-1.7-1.7A1.43,1.43,0,0,1,1.5,3a1.4,1.4,0,0,1-.58-.12,1.44,1.44,0,0,1-.48-.32,1.55,1.55,0,0,1-.32-.48A1.4,1.4,0,0,1,0,1.5,1.4,1.4,0,0,1,.12.92,1.55,1.55,0,0,1,.44.44,1.44,1.44,0,0,1,.92.12,1.4,1.4,0,0,1,1.5,0a1.4,1.4,0,0,1,.58.12,1.55,1.55,0,0,1,.48.32,1.55,1.55,0,0,1,.32.48A1.4,1.4,0,0,1,3,1.5a1.43,1.43,0,0,1-.21.76L4.49,4A1.48,1.48,0,0,1,6,4l1.7-1.7A1.43,1.43,0,0,1,7.5,1.5,1.4,1.4,0,0,1,7.62.92,1.55,1.55,0,0,1,7.94.44,1.44,1.44,0,0,1,8.42.12a1.46,1.46,0,0,1,1.16,0,1.55,1.55,0,0,1,.48.32,1.55,1.55,0,0,1,.32.48,1.4,1.4,0,0,1,.12.58,1.4,1.4,0,0,1-.12.58,1.55,1.55,0,0,1-.32.48,1.55,1.55,0,0,1-.48.32A1.4,1.4,0,0,1,9,3a1.43,1.43,0,0,1-.76-.21l-1.7,1.7A1.48,1.48,0,0,1,6.54,6l1.7,1.7A1.43,1.43,0,0,1,9,7.5ZM.75,1.5a.68.68,0,0,0,.06.29.74.74,0,0,0,.4.4.68.68,0,0,0,.29.06.68.68,0,0,0,.29-.06.74.74,0,0,0,.4-.4.68.68,0,0,0,.06-.29.68.68,0,0,0-.06-.29.74.74,0,0,0-.4-.4A.68.68,0,0,0,1.5.75a.68.68,0,0,0-.29.06.74.74,0,0,0-.4.4A.68.68,0,0,0,.75,1.5ZM1.5,9.75a.68.68,0,0,0,.29-.06.74.74,0,0,0,.4-.4.73.73,0,0,0,0-.58.74.74,0,0,0-.4-.4.68.68,0,0,0-.29-.06.68.68,0,0,0-.29.06.74.74,0,0,0-.4.4.73.73,0,0,0,0,.58.74.74,0,0,0,.4.4A.68.68,0,0,0,1.5,9.75ZM5.25,6a.68.68,0,0,0,.29-.06.74.74,0,0,0,.4-.4.73.73,0,0,0,0-.58.74.74,0,0,0-.4-.4.73.73,0,0,0-.58,0,.74.74,0,0,0-.4.4.73.73,0,0,0,0,.58.74.74,0,0,0,.4.4A.68.68,0,0,0,5.25,6ZM9,.75a.68.68,0,0,0-.29.06.74.74,0,0,0-.4.4.68.68,0,0,0-.06.29.68.68,0,0,0,.06.29.74.74,0,0,0,.4.4.73.73,0,0,0,.58,0,.74.74,0,0,0,.4-.4.68.68,0,0,0,.06-.29.68.68,0,0,0-.06-.29.74.74,0,0,0-.4-.4A.68.68,0,0,0,9,.75Zm0,9a.68.68,0,0,0,.29-.06.74.74,0,0,0,.4-.4.73.73,0,0,0,0-.58.74.74,0,0,0-.4-.4.73.73,0,0,0-.58,0,.74.74,0,0,0-.4.4.73.73,0,0,0,0,.58.74.74,0,0,0,.4.4A.68.68,0,0,0,9,9.75Z"/></g></g></svg>