<svg width="49" height="49" viewBox="0 0 49 49" fill="none" xmlns="http://www.w3.org/2000/svg">
<path opacity="0.1" fill-rule="evenodd" clip-rule="evenodd" d="M1 24.5C1 11.5213 11.5213 1 24.5 1C37.4787 1 48 11.5213 48 24.5C48 37.4787 37.4787 48 24.5 48C11.5213 48 1 37.4787 1 24.5Z" stroke="white" stroke-width="2"/>
<path opacity="0.3" fill-rule="evenodd" clip-rule="evenodd" d="M5 24.5C5 13.7304 13.7304 5 24.5 5C35.2696 5 44 13.7304 44 24.5C44 35.2696 35.2696 44 24.5 44C13.7304 44 5 35.2696 5 24.5Z" stroke="white" stroke-width="2"/>
<path opacity="0.5" fill-rule="evenodd" clip-rule="evenodd" d="M9 24.5C9 15.9396 15.9396 9 24.5 9C33.0604 9 40 15.9396 40 24.5C40 33.0604 33.0604 40 24.5 40C15.9396 40 9 33.0604 9 24.5Z" stroke="white" stroke-width="2"/>
<path d="M24.5 37C31.4036 37 37 31.4036 37 24.5C37 17.5964 31.4036 12 24.5 12C17.5964 12 12 17.5964 12 24.5C12 31.4036 17.5964 37 24.5 37Z" fill="white"/>
<path d="M21.3164 24.9121C21.3164 24.8066 21.2832 24.7188 21.2168 24.6484C21.1543 24.5742 21.0723 24.5059 20.9707 24.4434C20.873 24.3809 20.7676 24.3203 20.6543 24.2617C20.541 24.1992 20.4336 24.1289 20.332 24.0508C20.2344 23.9727 20.1523 23.8789 20.0859 23.7695C20.0234 23.6602 19.9922 23.5273 19.9922 23.3711C19.9922 23.2227 20.0215 23.0938 20.0801 22.9844C20.1426 22.8711 20.2227 22.7793 20.3203 22.709C20.4219 22.6348 20.5352 22.5801 20.6602 22.5449C20.7891 22.5098 20.9219 22.4922 21.0586 22.4922C21.1719 22.4922 21.2891 22.502 21.4102 22.5215C21.5312 22.5371 21.6426 22.5664 21.7441 22.6094V23.1602C21.541 23.0117 21.3145 22.9375 21.0645 22.9375C21.002 22.9375 20.9395 22.9453 20.877 22.9609C20.8184 22.9727 20.7637 22.9961 20.7129 23.0312C20.666 23.0625 20.627 23.1035 20.5957 23.1543C20.5645 23.2051 20.5488 23.2656 20.5488 23.3359C20.5488 23.4453 20.582 23.5371 20.6484 23.6113C20.7148 23.6855 20.7969 23.7539 20.8945 23.8164C20.9922 23.8789 21.0977 23.9395 21.2109 23.998C21.3281 24.0566 21.4355 24.125 21.5332 24.2031C21.6309 24.2773 21.7129 24.3672 21.7793 24.4727C21.8457 24.5781 21.8789 24.707 21.8789 24.8594C21.8789 25.0234 21.8477 25.1621 21.7852 25.2754C21.7227 25.3887 21.6387 25.4805 21.5332 25.5508C21.4277 25.6211 21.3066 25.6719 21.1699 25.7031C21.0371 25.7344 20.8984 25.75 20.7539 25.75C20.6992 25.75 20.6367 25.7461 20.5664 25.7383C20.5 25.7305 20.4316 25.7188 20.3613 25.7031C20.2949 25.6875 20.2305 25.668 20.168 25.6445C20.1055 25.6211 20.0508 25.5938 20.0039 25.5625V24.9941C20.0508 25.041 20.1055 25.084 20.168 25.123C20.2344 25.1582 20.3047 25.1895 20.3789 25.2168C20.4531 25.2441 20.5273 25.2656 20.6016 25.2812C20.6758 25.2969 20.7461 25.3047 20.8125 25.3047C20.9453 25.3047 21.0625 25.2773 21.1641 25.2227C21.2656 25.1641 21.3164 25.0605 21.3164 24.9121ZM22.9863 25.75H22.5V22.5977H23.25L24.1992 24.9648H24.2109L25.1953 22.5977H25.9102V25.75H25.3945V23.2598H25.3828L24.3691 25.75H24.0293L22.998 23.2773H22.9863V25.75ZM28.0488 24.9121C28.0488 24.8105 28.0156 24.7227 27.9492 24.6484C27.8867 24.5742 27.8047 24.5059 27.7031 24.4434C27.6055 24.3809 27.5 24.3203 27.3867 24.2617C27.2734 24.1992 27.166 24.1289 27.0645 24.0508C26.9668 23.9688 26.8848 23.875 26.8184 23.7695C26.7559 23.6602 26.7246 23.5273 26.7246 23.3711C26.7246 23.2227 26.7539 23.0938 26.8125 22.9844C26.875 22.875 26.9551 22.7832 27.0527 22.709C27.1543 22.6348 27.2695 22.5801 27.3984 22.5449C27.5273 22.5098 27.6582 22.4922 27.791 22.4922C27.9043 22.4922 28.0215 22.502 28.1426 22.5215C28.2637 22.5371 28.375 22.5664 28.4766 22.6094V23.1602C28.3789 23.082 28.2715 23.0254 28.1543 22.9902C28.0371 22.9551 27.918 22.9375 27.7969 22.9375C27.7344 22.9375 27.6719 22.9453 27.6094 22.9609C27.5508 22.9727 27.4961 22.9961 27.4453 23.0312C27.3984 23.0625 27.3594 23.1035 27.3281 23.1543C27.2969 23.2051 27.2812 23.2656 27.2812 23.3359C27.2812 23.4414 27.3145 23.5332 27.3809 23.6113C27.4473 23.6855 27.5293 23.7539 27.627 23.8164C27.7246 23.875 27.8301 23.9355 27.9434 23.998C28.0605 24.0566 28.168 24.125 28.2656 24.2031C28.3633 24.2773 28.4453 24.3672 28.5117 24.4727C28.5781 24.5781 28.6113 24.707 28.6113 24.8594C28.6113 25.0234 28.5801 25.1621 28.5176 25.2754C28.4551 25.3887 28.3711 25.4805 28.2656 25.5508C28.1602 25.6211 28.0391 25.6719 27.9023 25.7031C27.7695 25.7344 27.6309 25.75 27.4863 25.75C27.4316 25.75 27.3691 25.7461 27.2988 25.7383C27.2324 25.7305 27.1641 25.7188 27.0938 25.7031C27.0273 25.6836 26.9629 25.6641 26.9004 25.6445C26.8379 25.6211 26.7832 25.5938 26.7363 25.5625V24.9941C26.8379 25.0879 26.9629 25.1641 27.1113 25.2227C27.2637 25.2773 27.4082 25.3047 27.5449 25.3047C27.6777 25.3047 27.7949 25.2773 27.8965 25.2227C27.998 25.168 28.0488 25.0645 28.0488 24.9121ZM30 19.75V28H22.2832L19.5 30.7832V28H18V19.75H30ZM29.25 20.5H18.75V27.25H20.25V28.9668L21.9668 27.25H29.25V20.5Z" fill="#315FA2"/>
</svg>
