<svg width="16" height="16" viewBox="0 0 16 16" fill="none" xmlns="http://www.w3.org/2000/svg">
<path d="M3.00001 11.9999H9.02664V12.9999H2.00001C1.73731 12.9994 1.4844 13.0996 1.29335 13.2799C1.20296 13.3724 1.13061 13.4809 1.08002 13.5999C1.0254 13.7261 0.998129 13.8624 1.00002 13.9999C0.999601 14.133 1.02685 14.2646 1.08002 14.3866C1.12705 14.5075 1.19985 14.6167 1.29335 14.7066C1.37826 14.7998 1.48307 14.8727 1.60001 14.9199C1.72665 14.9731 1.86267 15.0003 2.00001 14.9999H9.02664V15.9999H2.00001C1.73377 16.0024 1.4701 15.9478 1.22668 15.8399C0.987245 15.7414 0.769705 15.5964 0.586624 15.4133C0.403542 15.2302 0.25855 15.0127 0.16002 14.7733C0.0533032 14.5295 -0.00119981 14.266 2.00325e-05 13.9999C-0.0011108 13.7295 0.0533501 13.4618 0.16002 13.2133C0.316954 12.8551 0.574176 12.5499 0.900661 12.3346C1.22715 12.1193 1.60894 12.0031 2.00001 11.9999V1.99999C1.99888 1.72958 2.05334 1.46182 2.16001 1.21333C2.25787 0.977454 2.40308 0.764168 2.58667 0.586664C2.96381 0.215128 3.47061 0.00475703 4 0H14C14.5293 0.00475703 15.0361 0.215128 15.4133 0.586664C15.5969 0.764168 15.7421 0.977454 15.8399 1.21333C15.9466 1.46182 16.0011 1.72958 15.9999 1.99999C16.0012 2.26611 15.9467 2.52953 15.8399 2.77332C15.739 3.01147 15.5943 3.22856 15.4133 3.41332C15.2285 3.59433 15.0114 3.73906 14.7733 3.83998C14.5299 3.94786 14.2662 4.00241 14 3.99998H13.0266V9.49329L12.0266 8.99996V1.99999C12.023 1.64862 12.1152 1.3029 12.2933 0.999995H4.02667C3.89347 0.997931 3.76145 1.02525 3.64 1.07999C3.521 1.13059 3.41248 1.20294 3.32001 1.29333C3.23279 1.38335 3.16075 1.48692 3.10667 1.59999C3.05205 1.72618 3.02479 1.8625 3.02667 1.99999L3.00001 11.9999Z" fill="#454546"/>
<path d="M10 8.99994L16 12.4533L10 15.9332V8.99994Z" fill="#0B789B"/>
<path d="M11 14.187L14 12.4536L11 10.7336V14.187Z" fill="#47ABC1"/>
<path d="M14.9999 2.00009C15.0018 1.86261 14.9746 1.72628 14.9199 1.6001C14.8659 1.48702 14.7938 1.38346 14.7066 1.29343C14.6062 1.20018 14.4884 1.12768 14.36 1.0801C14.2379 1.02726 14.1063 1 13.9733 1C13.8403 1 13.7087 1.02726 13.5866 1.0801C13.4676 1.1307 13.3591 1.20304 13.2666 1.29343C13.1699 1.3814 13.0888 1.48508 13.0266 1.6001C12.972 1.72628 12.9447 1.86261 12.9466 2.00009V3.00009H13.9466C14.0888 3.00622 14.2304 2.97882 14.36 2.92009C14.6013 2.81996 14.7932 2.62815 14.8933 2.38676C14.9557 2.26682 14.992 2.13506 14.9999 2.00009Z" fill="#999999"/>
<path d="M12.2666 1H4C3.73478 1 3.48043 1.10536 3.29289 1.29289C3.10536 1.48043 3 1.73478 3 2V11.9999H9.02664V7.46663L12.0266 8.99996V2C12.0228 1.65196 12.1052 1.30839 12.2666 1V1Z" fill="white"/>
</svg>
