<svg width="11" height="16" viewBox="0 0 11 16" fill="none" xmlns="http://www.w3.org/2000/svg">
<path d="M5.5 0C6.00521 0 6.49219 0.0651042 6.96094 0.195312C7.42969 0.325521 7.86719 0.510417 8.27344 0.75C8.6849 0.989583 9.05729 1.27604 9.39062 1.60938C9.72396 1.94271 10.0104 2.3151 10.25 2.72656C10.4896 3.13281 10.6745 3.57031 10.8047 4.03906C10.9349 4.50781 11 4.99479 11 5.5C11 6.25521 10.8568 6.95573 10.5703 7.60156C10.2839 8.2474 9.875 8.83333 9.34375 9.35938C8.91146 9.78646 8.57812 10.263 8.34375 10.7891C8.11458 11.3151 8 11.8854 8 12.5V14.5C8 14.7083 7.96094 14.9036 7.88281 15.0859C7.80469 15.2682 7.69792 15.4271 7.5625 15.5625C7.42708 15.6979 7.26823 15.8047 7.08594 15.8828C6.90365 15.9609 6.70833 16 6.5 16H4.5C4.29167 16 4.09635 15.9609 3.91406 15.8828C3.73177 15.8047 3.57292 15.6979 3.4375 15.5625C3.30208 15.4271 3.19531 15.2682 3.11719 15.0859C3.03906 14.9036 3 14.7083 3 14.5V12.5C3 11.8854 2.88281 11.3151 2.64844 10.7891C2.41927 10.263 2.08854 9.78646 1.65625 9.35938C1.125 8.83333 0.716146 8.2474 0.429688 7.60156C0.143229 6.95573 0 6.25521 0 5.5C0 4.99479 0.0651042 4.50781 0.195312 4.03906C0.325521 3.57031 0.510417 3.13281 0.75 2.72656C0.989583 2.3151 1.27604 1.94271 1.60938 1.60938C1.94271 1.27604 2.3125 0.989583 2.71875 0.75C3.13021 0.510417 3.57031 0.325521 4.03906 0.195312C4.50781 0.0651042 4.99479 0 5.5 0ZM6.5 15C6.63542 15 6.7526 14.9505 6.85156 14.8516C6.95052 14.7526 7 14.6354 7 14.5V13H4V14.5C4 14.6354 4.04948 14.7526 4.14844 14.8516C4.2474 14.9505 4.36458 15 4.5 15H6.5ZM7.02344 12C7.08594 11.3333 7.25521 10.7266 7.53125 10.1797C7.8125 9.6276 8.1875 9.11458 8.65625 8.64062C9.08854 8.20833 9.41927 7.73177 9.64844 7.21094C9.88281 6.6849 10 6.11458 10 5.5C10 4.88021 9.88021 4.29688 9.64062 3.75C9.40625 3.20312 9.08594 2.72656 8.67969 2.32031C8.27344 1.91406 7.79688 1.59375 7.25 1.35938C6.70312 1.11979 6.11979 1 5.5 1C4.88021 1 4.29688 1.11979 3.75 1.35938C3.20312 1.59375 2.72656 1.91406 2.32031 2.32031C1.91406 2.72656 1.59115 3.20312 1.35156 3.75C1.11719 4.29688 1 4.88021 1 5.5C1 6.11458 1.11458 6.6849 1.34375 7.21094C1.57812 7.73177 1.91146 8.20833 2.34375 8.64062C2.8125 9.11458 3.1849 9.6276 3.46094 10.1797C3.74219 10.7266 3.91406 11.3333 3.97656 12H5V8C5 7.86458 5.04948 7.7474 5.14844 7.64844C5.2474 7.54948 5.36458 7.5 5.5 7.5C5.63542 7.5 5.7526 7.54948 5.85156 7.64844C5.95052 7.7474 6 7.86458 6 8V12H7.02344ZM3 4.5C3.13542 4.5 3.2526 4.54948 3.35156 4.64844L4.35156 5.64844C4.45052 5.7474 4.5 5.86458 4.5 6C4.5 6.13542 4.45052 6.2526 4.35156 6.35156C4.2526 6.45052 4.13542 6.5 4 6.5C3.86458 6.5 3.7474 6.45052 3.64844 6.35156L2.64844 5.35156C2.54948 5.2526 2.5 5.13542 2.5 5C2.5 4.86458 2.54948 4.7474 2.64844 4.64844C2.7474 4.54948 2.86458 4.5 3 4.5ZM6.5 6C6.5 5.86458 6.54948 5.7474 6.64844 5.64844L7.64844 4.64844C7.7474 4.54948 7.86458 4.5 8 4.5C8.13542 4.5 8.2526 4.54948 8.35156 4.64844C8.45052 4.7474 8.5 4.86458 8.5 5C8.5 5.13542 8.45052 5.2526 8.35156 5.35156L7.35156 6.35156C7.2526 6.45052 7.13542 6.5 7 6.5C6.86458 6.5 6.7474 6.45052 6.64844 6.35156C6.54948 6.2526 6.5 6.13542 6.5 6ZM5.5 3C5.63542 3 5.7526 3.04948 5.85156 3.14844C5.95052 3.2474 6 3.36458 6 3.5V5C6 5.13542 5.95052 5.2526 5.85156 5.35156C5.7526 5.45052 5.63542 5.5 5.5 5.5C5.36458 5.5 5.2474 5.45052 5.14844 5.35156C5.04948 5.2526 5 5.13542 5 5V3.5C5 3.36458 5.04948 3.2474 5.14844 3.14844C5.2474 3.04948 5.36458 3 5.5 3Z" fill="#2266E3"/>
</svg>
