<svg width="11" height="11" viewBox="0 0 11 11" fill="none" xmlns="http://www.w3.org/2000/svg">
<path d="M5.65625 10.3125C5.18001 10.3125 4.72168 10.2516 4.28125 10.1299C3.8444 10.0081 3.43441 9.83626 3.05127 9.61426C2.66813 9.38867 2.31901 9.12012 2.00391 8.80859C1.69238 8.49349 1.42383 8.14437 1.19824 7.76123C0.976237 7.37809 0.804362 6.9681 0.682617 6.53125C0.560872 6.09082 0.5 5.63249 0.5 5.15625C0.5 4.68001 0.560872 4.22347 0.682617 3.78662C0.804362 3.34619 0.976237 2.93441 1.19824 2.55127C1.42383 2.16813 1.69238 1.8208 2.00391 1.50928C2.31901 1.19417 2.66813 0.925618 3.05127 0.703613C3.43441 0.478027 3.8444 0.304362 4.28125 0.182617C4.72168 0.0608724 5.18001 0 5.65625 0C6.13249 0 6.58903 0.0608724 7.02588 0.182617C7.46631 0.304362 7.87809 0.478027 8.26123 0.703613C8.64437 0.925618 8.9917 1.19417 9.30322 1.50928C9.61833 1.8208 9.88688 2.16813 10.1089 2.55127C10.3345 2.93441 10.5081 3.34619 10.6299 3.78662C10.7516 4.22347 10.8125 4.68001 10.8125 5.15625C10.8125 5.63249 10.7516 6.09082 10.6299 6.53125C10.5081 6.9681 10.3345 7.37809 10.1089 7.76123C9.88688 8.14437 9.61833 8.49349 9.30322 8.80859C8.9917 9.12012 8.64437 9.38867 8.26123 9.61426C7.87809 9.83626 7.46631 10.0081 7.02588 10.1299C6.58903 10.2516 6.13249 10.3125 5.65625 10.3125ZM5.65625 0.6875C5.24447 0.6875 4.8488 0.741211 4.46924 0.848633C4.08968 0.956055 3.7334 1.10645 3.40039 1.2998C3.07096 1.49316 2.77018 1.72591 2.49805 1.99805C2.22591 2.27018 1.99316 2.57275 1.7998 2.90576C1.60645 3.23519 1.45605 3.59147 1.34863 3.97461C1.24121 4.35417 1.1875 4.74805 1.1875 5.15625C1.1875 5.56445 1.24121 5.96012 1.34863 6.34326C1.45605 6.72282 1.60645 7.0791 1.7998 7.41211C1.99316 7.74154 2.22591 8.04232 2.49805 8.31445C2.77018 8.58659 3.07096 8.81934 3.40039 9.0127C3.7334 9.20605 4.08968 9.35645 4.46924 9.46387C4.8488 9.57129 5.24447 9.625 5.65625 9.625C6.06445 9.625 6.45833 9.57129 6.83789 9.46387C7.22103 9.35645 7.57731 9.20605 7.90674 9.0127C8.23975 8.81934 8.54232 8.58659 8.81445 8.31445C9.08659 8.04232 9.31934 7.74154 9.5127 7.41211C9.70605 7.0791 9.85645 6.72282 9.96387 6.34326C10.0713 5.9637 10.125 5.56803 10.125 5.15625C10.125 4.74805 10.0713 4.35417 9.96387 3.97461C9.85645 3.59147 9.70605 3.23519 9.5127 2.90576C9.31934 2.57275 9.08659 2.27018 8.81445 1.99805C8.54232 1.72591 8.23975 1.49316 7.90674 1.2998C7.57731 1.10645 7.22103 0.956055 6.83789 0.848633C6.45833 0.741211 6.06445 0.6875 5.65625 0.6875ZM5.3125 4.125H6V7.5625H5.3125V4.125ZM5.3125 2.75H6V3.4375H5.3125V2.75Z" fill="#979593"/>
</svg>
