<svg width="14" height="16" viewBox="0 0 14 16" fill="none" xmlns="http://www.w3.org/2000/svg">
<path d="M9 2C9.45833 2 9.90104 2.0599 10.3281 2.17969C10.7552 2.29948 11.1536 2.46875 11.5234 2.6875C11.8932 2.90104 12.2292 3.16146 12.5312 3.46875C12.8385 3.77083 13.099 4.10677 13.3125 4.47656C13.5312 4.84635 13.7005 5.24479 13.8203 5.67188C13.9401 6.09896 14 6.54167 14 7C14 7.55208 13.9245 8.04167 13.7734 8.46875C13.6276 8.89583 13.4427 9.28125 13.2188 9.625C13 9.96875 12.7604 10.2812 12.5 10.5625C12.2396 10.8385 11.9974 11.1068 11.7734 11.3672C11.5547 11.6276 11.3698 11.8906 11.2188 12.1562C11.0729 12.4167 11 12.6979 11 13V14.6484C11 14.8359 10.9635 15.013 10.8906 15.1797C10.8229 15.3411 10.7266 15.4844 10.6016 15.6094C10.4818 15.7292 10.3385 15.8255 10.1719 15.8984C10.0104 15.9661 9.83594 16 9.64844 16H8.35156C8.16406 16 7.98698 15.9661 7.82031 15.8984C7.65885 15.8255 7.51562 15.7292 7.39062 15.6094C7.27083 15.4844 7.17448 15.3411 7.10156 15.1797C7.03385 15.013 7 14.8359 7 14.6484V13C7 12.7917 6.95833 12.5885 6.875 12.3906C6.79167 12.1875 6.6875 11.9948 6.5625 11.8125C6.4375 11.6302 6.29948 11.4557 6.14844 11.2891C6.0026 11.1172 5.86458 10.9583 5.73438 10.8125L5.9375 11.0391C5.86979 11.3203 5.72656 11.5521 5.50781 11.7344C5.29427 11.9115 5.04167 12 4.75 12H3.25C3.07812 12 2.91667 11.9688 2.76562 11.9062C2.61458 11.8385 2.48177 11.7474 2.36719 11.6328C2.2526 11.5182 2.16146 11.3854 2.09375 11.2344C2.03125 11.0833 2 10.9219 2 10.75V9C2 8.59896 1.92969 8.21094 1.78906 7.83594C1.65365 7.45573 1.44792 7.11979 1.17188 6.82812C0.791667 6.42708 0.5 5.99479 0.296875 5.53125C0.0989583 5.06771 0 4.55729 0 4C0 3.4375 0.104167 2.91667 0.3125 2.4375C0.520833 1.95312 0.804688 1.53385 1.16406 1.17969C1.52344 0.825521 1.94531 0.546875 2.42969 0.34375C2.91927 0.140625 3.44271 0.0390625 4 0.0390625C4.39062 0.0390625 4.76302 0.0885417 5.11719 0.1875C5.47135 0.28125 5.80208 0.421875 6.10938 0.609375C6.41667 0.796875 6.69271 1.02865 6.9375 1.30469C7.1875 1.57552 7.39844 1.88542 7.57031 2.23438C7.80469 2.16146 8.03906 2.10417 8.27344 2.0625C8.51302 2.02083 8.75521 2 9 2ZM1 4C1 4.41667 1.07552 4.80208 1.22656 5.15625C1.3776 5.50521 1.59375 5.82812 1.875 6.125C2.25 6.52083 2.53125 6.96354 2.71875 7.45312C2.90625 7.9375 3 8.45312 3 9H4.42188C4.35417 8.90625 4.29427 8.77083 4.24219 8.59375C4.1901 8.41667 4.14583 8.23177 4.10938 8.03906C4.07292 7.84115 4.04427 7.64844 4.02344 7.46094C4.00781 7.27344 4 7.11979 4 7C4 6.54167 4.0599 6.09635 4.17969 5.66406C4.30469 5.23177 4.48177 4.82552 4.71094 4.44531C4.94531 4.0651 5.22396 3.72135 5.54688 3.41406C5.875 3.10156 6.24219 2.83594 6.64844 2.61719C6.3776 2.10156 6.01302 1.70833 5.55469 1.4375C5.10156 1.16146 4.58333 1.02344 4 1.02344C3.58333 1.02344 3.19271 1.10156 2.82812 1.25781C2.46354 1.40885 2.14583 1.61719 1.875 1.88281C1.60417 2.14844 1.39062 2.46354 1.23438 2.82812C1.07812 3.1875 1 3.57812 1 4ZM5 10H3V10.75C3 10.8229 3.02344 10.8828 3.07031 10.9297C3.11719 10.9766 3.17708 11 3.25 11H4.75C4.82292 11 4.88281 10.9766 4.92969 10.9297C4.97656 10.8828 5 10.8229 5 10.75V10ZM10 14H8V14.6484C8 14.7474 8.03385 14.8307 8.10156 14.8984C8.16927 14.9661 8.2526 15 8.35156 15H9.64844C9.7474 15 9.83073 14.9661 9.89844 14.8984C9.96615 14.8307 10 14.7474 10 14.6484V14ZM10 13C10 12.6719 10.0495 12.3724 10.1484 12.1016C10.2526 11.8255 10.3854 11.5677 10.5469 11.3281C10.7083 11.0833 10.8906 10.8516 11.0938 10.6328C11.2969 10.4141 11.4974 10.1953 11.6953 9.97656C11.8932 9.7526 12.0807 9.52604 12.2578 9.29688C12.4349 9.06771 12.5781 8.82031 12.6875 8.55469C12.8958 8.04948 13 7.53125 13 7C13 6.44792 12.8932 5.92969 12.6797 5.44531C12.4714 4.96094 12.1849 4.53906 11.8203 4.17969C11.4609 3.8151 11.0391 3.52865 10.5547 3.32031C10.0703 3.10677 9.55208 3 9 3C8.44792 3 7.92969 3.10677 7.44531 3.32031C6.96094 3.52865 6.53646 3.8151 6.17188 4.17969C5.8125 4.53906 5.52604 4.96094 5.3125 5.44531C5.10417 5.92969 5 6.44792 5 7C5 7.53125 5.10417 8.04948 5.3125 8.55469C5.42188 8.82031 5.5651 9.06771 5.74219 9.29688C5.91927 9.52604 6.10677 9.7526 6.30469 9.97656C6.5026 10.1953 6.70312 10.4141 6.90625 10.6328C7.10938 10.8516 7.29167 11.0833 7.45312 11.3281C7.61458 11.5677 7.74479 11.8255 7.84375 12.1016C7.94792 12.3724 8 12.6719 8 13H10Z" fill="#14848F"/>
</svg>