<svg width="16" height="16" viewBox="0 0 16 16" fill="none" xmlns="http://www.w3.org/2000/svg">
<path d="M3.2316 0H0V3.26376H3.2316V0Z" fill="#0B789B"/>
<path d="M3.2316 5.43945H0V8.70321H3.2316V5.43945Z" fill="#0B789B"/>
<path d="M3.2316 10.8794H0V14.1432H3.2316V10.8794Z" fill="#0B789B"/>
<path d="M2.15435 1.08789H1.07715V2.17581H2.15435V1.08789Z" fill="#47ABC1"/>
<path d="M2.15435 11.9673H1.07715V13.0552H2.15435V11.9673Z" fill="#47ABC1"/>
<path d="M15.0806 1.08789H4.30859V2.17581H15.0806V1.08789Z" fill="#454546"/>
<path d="M15.0806 6.52734H4.30859V7.61526H15.0806V6.52734Z" fill="#454546"/>
<path d="M4.30859 11.9673H9.16317L8.08597 13.0552H4.30859V11.9673Z" fill="#454546"/>
<path d="M15.2386 10.5024L15.9999 11.2567L11.3176 16.0001L9.04834 13.7082L9.80956 12.9394L11.3176 14.4625L15.2386 10.5024Z" fill="#449F46"/>
</svg>
