<svg xmlns="http://www.w3.org/2000/svg" viewBox="0 0 2048 2048" width="24" height="24">
  <path d="M1664 1408q53 0 99 20t82 55 55 81 20 100q0 53-20 99t-55 82-81 55-100 20q-53 0-99-20t-82-55-55-81-20-100q0-71 35-130l-289-289q-59 35-130 35t-130-35l-289 289q35 59 35 130 0 53-20 99t-55 82-81 55-100 20q-53 0-99-20t-82-55-55-81-20-100q0-53 20-99t55-82 81-55 100-20q71 0 130 35l289-289q-35-59-35-130t35-130L514 605q-59 35-130 35-53 0-99-20t-82-55-55-81-20-100q0-53 20-99t55-82 81-55 100-20q53 0 99 20t82 55 55 81 20 100q0 71-35 130l289 289q59-35 130-35t130 35l289-289q-35-59-35-130 0-53 20-99t55-82 81-55 100-20q53 0 99 20t82 55 55 81 20 100q0 53-20 99t-55 82-81 55-100 20q-71 0-130-35l-289 289q35 59 35 130t-35 130l289 289q59-35 130-35zm0-1152q-27 0-50 10t-40 27-28 41-10 50q0 27 10 50t27 40 41 28 50 10q27 0 50-10t40-27 28-41 10-50q0-27-10-50t-27-40-41-28-50-10zM256 384q0 27 10 50t27 40 41 28 50 10q27 0 50-10t40-27 28-41 10-50q0-27-10-50t-27-40-41-28-50-10q-27 0-50 10t-40 27-28 41-10 50zm128 1408q27 0 50-10t40-27 28-41 10-50q0-27-10-50t-27-40-41-28-50-10q-27 0-50 10t-40 27-28 41-10 50q0 27 10 50t27 40 41 28 50 10zm640-640q27 0 50-10t40-27 28-41 10-50q0-27-10-50t-27-40-41-28-50-10q-27 0-50 10t-40 27-28 41-10 50q0 27 10 50t27 40 41 28 50 10zm640 640q27 0 50-10t40-27 28-41 10-50q0-27-10-50t-27-40-41-28-50-10q-27 0-50 10t-40 27-28 41-10 50q0 27 10 50t27 40 41 28 50 10z" />
</svg>