<svg width="44" height="44" viewBox="0 0 44 44" fill="none" xmlns="http://www.w3.org/2000/svg">
<path d="M20.2637 29L19.5664 29.7109L19.3066 30.75H8V11.5H36V18.8828C35.7357 18.7096 35.4577 18.5684 35.166 18.459C34.8743 18.3496 34.569 18.263 34.25 18.1992V13.25H9.75V29H20.2637ZM33.2656 20.25C33.6484 20.25 34.0039 20.3184 34.332 20.4551C34.6602 20.5918 34.9518 20.7786 35.207 21.0156C35.4622 21.2526 35.6536 21.5397 35.7812 21.877C35.9089 22.2142 35.9818 22.5742 36 22.957C36 23.3125 35.9316 23.6589 35.7949 23.9961C35.6582 24.3333 35.4622 24.6296 35.207 24.8848L25.4043 34.6875L20.25 35.9727L21.5352 30.8184L31.3379 21.0293C31.6022 20.765 31.8984 20.569 32.2266 20.4414C32.5547 20.3138 32.901 20.25 33.2656 20.25ZM33.9629 23.6543C34.1543 23.4629 34.25 23.2305 34.25 22.957C34.25 22.6745 34.1589 22.4466 33.9766 22.2734C33.7943 22.1003 33.5573 22.0091 33.2656 22C33.138 22 33.015 22.0182 32.8965 22.0547C32.778 22.0911 32.6732 22.1595 32.582 22.2598L23.1211 31.7207L22.6562 33.5664L24.502 33.1016L33.9629 23.6543Z" fill="white"/>
</svg>
